<svg xmlns="http://www.w3.org/2000/svg" width="150" height="140" fill="none" aria-hidden="true" viewBox="0 0 104 110" focusable="false"><path stroke="#197BBD" stroke-width="1.5" d="M55.024 9.597c6.115 0 11.072 4.957 11.072 11.072 0 .782-.082 1.544-.236 2.279l-.219 1.049 1.06-.154a11 11 0 0 1 1.599-.114c6.114 0 11.07 4.957 11.07 11.071 0 6.115-4.956 11.072-11.07 11.072H34.183c-6.114 0-11.07-4.957-11.07-11.072a11.04 11.04 0 0 1 3.576-8.15 11.03 11.03 0 0 1 7.494-2.92h1.535c2.194 0 4.078-.99 5.512-2.164 1.434-1.173 2.479-2.578 3.014-3.538l.046-.083.024-.092c1.246-4.751 5.57-8.256 10.71-8.256Z"/><path stroke="#197BBD" stroke-linecap="round" stroke-linejoin="round" stroke-width="1.5" d="M60.116 61.676v-9.49m-4.744 4.745 4.745-4.745 4.745 4.745"/><path stroke="#197BBD" stroke-linecap="round" stroke-linejoin="round" stroke-width=".683" d="m43.17 44.052 4.745-4.745 4.745 4.745"/><g stroke="#197BBD" stroke-linecap="round" stroke-linejoin="round" stroke-width="1.5" clip-path="url(#a)"><path d="m45.024 59.723-8.629 8.628c-.53.53-.53 1.388 0 1.918l5.752 5.752c.53.53 1.388.53 1.918 0l8.628-8.628c.53-.53.53-1.388 0-1.918l-5.752-5.752a1.356 1.356 0 0 0-1.918 0m-6.71 12.463L48.858 61.64"/></g><circle cx="37.237" cy="17.197" r="11.722" stroke="#197BBD" stroke-width="1.5" transform="rotate(-30 37.237 17.197)"/><path fill="#197BBD" d="M40.937 16.7q.327.567.297 1.225-.018.65-.395 1.28a3.7 3.7 0 0 1-1.036 1.107l.803 1.392a.38.38 0 0 1 .039.323.38.38 0 0 1-.195.26.43.43 0 0 1-.335.046.4.4 0 0 1-.248-.202l-.796-1.38a4.3 4.3 0 0 1-1.592.459 5.2 5.2 0 0 1-1.693-.173.43.43 0 0 1-.318-.21.46.46 0 0 1-.046-.335.44.44 0 0 1 .2-.28.44.44 0 0 1 .342-.033q1.404.438 2.687-.155l-1.992-3.45q-1.364.312-2.286.138t-1.512-1.197a2.27 2.27 0 0 1-.215-1.88q.297-.993 1.325-1.718l-.548-.948a.4.4 0 0 1-.051-.316.43.43 0 0 1 .207-.267.38.38 0 0 1 .323-.039.38.38 0 0 1 .26.195l.54.936q.69-.315 1.398-.396a2.8 2.8 0 0 1 1.289.127q.306.102.391.25.078.135.026.33a.46.46 0 0 1-.207.268.33.33 0 0 1-.26.034 2.7 2.7 0 0 0-1.073-.152q-.591.03-1.137.278l1.935 3.352q.9-.207 1.568-.216.674-.027 1.266.288.598.296 1.04 1.059m-7.327-1.65q.356.615.988.743.645.12 1.585-.044l-1.793-3.105q-.69.513-.905 1.164-.223.638.125 1.241m5.773 4.535q.67-.518.898-1.176a1.49 1.49 0 0 0-.12-1.26q-.382-.634-1.022-.774-.646-.153-1.605.007z"/><path fill="#fff" d="M22.362 34.799c0 6.529 5.293 11.821 11.821 11.821H68.3c6.53 0 11.822-5.292 11.822-11.821S74.828 22.978 68.3 22.978q-.87 0-1.705.122c.164-.785.25-1.599.25-2.433 0-6.529-5.292-11.821-11.82-11.821-5.49 0-10.107 3.742-11.436 8.815-.988 1.772-3.945 5.317-7.871 5.317h-1.535a11.78 11.78 0 0 0-8.002 3.12 11.8 11.8 0 0 0-3.819 8.7"/><path stroke="#197BBD" stroke-width="1.5" d="M55.024 9.596c6.115 0 11.072 4.957 11.072 11.071 0 .782-.082 1.545-.236 2.28l-.219 1.048 1.06-.153a11 11 0 0 1 1.599-.114c6.114 0 11.07 4.957 11.07 11.071S74.415 45.87 68.3 45.87H34.183c-6.114 0-11.07-4.957-11.07-11.07a11.04 11.04 0 0 1 3.576-8.15 11.03 11.03 0 0 1 7.494-2.922h1.535c2.194 0 4.078-.99 5.512-2.163 1.434-1.174 2.479-2.578 3.014-3.538l.046-.083.024-.092c1.246-4.751 5.57-8.256 10.71-8.256Z"/><path stroke="#197BBD" stroke-linecap="round" stroke-linejoin="round" stroke-width="1.5" d="M88.428 13.813a8.647 8.647 0 1 1-9.406-9.406 6.725 6.725 0 0 0 9.406 9.406"/><path fill="#fff" d="M39.781 37.96H56.05v13.488H39.781z"/><path stroke="#197BBD" stroke-linecap="round" stroke-linejoin="round" stroke-width="1.5" d="M47.915 48.796v-9.49m0 8.144v-9.49m-4.745 4.745 4.745-4.745 4.745 4.745"/><path fill="#404040" d="M17.376 92.727c0-1.397 1.043-2.534 2.44-2.534 1.184 0 1.77.718 1.77.718h.798s-.718-1.333-2.568-1.333a3.15 3.15 0 0 0 0 6.298c1.611 0 3.107-1.239 2.906-3.525h-2.778v.616h2.094c0 1.294-.906 2.294-2.222 2.294-1.397 0-2.44-1.136-2.44-2.534m6.632 3.064h.658v-4.299h-.658zm-.111-5.512c0 .243.2.436.44.436s.44-.193.44-.436a.44.44 0 0 0-.88 0m3.901 4.717-1.478-3.504h-.731l1.872 4.299h.675l1.871-4.299h-.73zm4.871.88c1.547 0 2.051-1.162 2.051-1.162h-.739s-.406.599-1.312.599c-.782 0-1.427-.565-1.555-1.376h3.807c.081-1.59-1.017-2.53-2.252-2.53s-2.234.914-2.234 2.235 1 2.234 2.234 2.234m0-3.905c.787 0 1.44.577 1.556 1.401H31.11c.12-.824.769-1.401 1.56-1.401m6.26 6.093h.675l2.863-6.572h-.73l-1.479 3.504-1.478-3.504h-.73l1.87 4.299zm4.18-4.422c0 1.32 1 2.234 2.234 2.234 1.235 0 2.235-.914 2.235-2.234s-1-2.235-2.235-2.235-2.235.914-2.235 2.235m.657 0c0-.966.705-1.671 1.577-1.671s1.577.705 1.577 1.67c0 .966-.705 1.671-1.577 1.671s-1.577-.705-1.577-1.67m4.837 0c0 1.363.616 2.234 1.885 2.234 1.124 0 1.376-.858 1.397-.905v.82h.658v-4.299h-.658v2.15c0 .918-.35 1.67-1.312 1.67-.961 0-1.312-.752-1.312-1.67v-2.15h-.658zm7.67-2.15s-.312-.085-.594-.085c-.649-.004-1.119.367-1.281.906v-.82h-.659v4.298h.659v-2.15c0-.94.354-1.666 1.277-1.67.295 0 .598.073.598.073zm10.285 2.064c0-1.235-.512-2.15-1.781-2.15-1.124 0-1.487.975-1.487.975s-.316-.974-1.573-.974c-.978 0-1.256.773-1.277.82v-.735h-.658v4.299h.658v-2.15c0-.918.282-1.662 1.2-1.662.919 0 1.201.744 1.201 1.663v2.149h.658v-2.15c0-.918.282-1.662 1.2-1.662.92 0 1.201.744 1.201 1.663v2.149h.658zm1.026.086c0 1.32 1 2.234 2.235 2.234s2.235-.914 2.235-2.234-1-2.235-2.235-2.235-2.235.914-2.235 2.235m.658 0c0-.966.705-1.671 1.577-1.671.871 0 1.577.705 1.577 1.67 0 .966-.706 1.671-1.577 1.671-.872 0-1.577-.705-1.577-1.67m8.777 0c0-1.363-.616-2.235-1.885-2.235-1.123 0-1.376.859-1.397.906v-.82h-.658v4.298h.658v-2.15c0-.918.35-1.67 1.312-1.67.961 0 1.312.752 1.312 1.67v2.15h.658zm3.26 2.234c1.547 0 2.051-1.162 2.051-1.162h-.74s-.405.599-1.31.599c-.783 0-1.428-.565-1.556-1.376h3.807c.081-1.59-1.017-2.53-2.252-2.53s-2.235.914-2.235 2.235 1 2.234 2.235 2.234m0-3.905c.786 0 1.44.577 1.556 1.401H78.72c.12-.824.769-1.401 1.56-1.401m3.782 6.093h.675l2.863-6.572h-.73l-1.48 3.504-1.478-3.504h-.73l1.871 4.299zm-79.482 5.33s-.458-.987-1.62-.987c-1.192 0-2.192.957-2.192 2.235 0 1.277 1 2.235 2.192 2.235 1.162 0 1.62-.988 1.62-.988v.902h.658v-4.299H4.58zm0 1.248c0 .965-.705 1.67-1.577 1.67s-1.577-.705-1.577-1.67c0-.966.705-1.671 1.577-1.671s1.577.705 1.577 1.671m3.209 1.132-1.017-3.282H6.05l1.427 4.299h.615l1.03-3.294 1.03 3.294h.615l1.427-4.299h-.722l-1.017 3.282-1.025-3.282h-.616zm7.067 1.103c1.547 0 2.051-1.163 2.051-1.163h-.739s-.406.598-1.312.598c-.782 0-1.427-.564-1.555-1.375h3.807c.081-1.59-1.017-2.53-2.252-2.53s-2.235.914-2.235 2.235 1 2.235 2.235 2.235m0-3.906c.787 0 1.44.577 1.556 1.402h-3.115c.12-.825.769-1.402 1.56-1.402m4.833 3.341c-.927 0-1.12-.512-1.12-.512h-.683s.12 1.077 1.803 1.077c1.12 0 1.829-.436 1.829-1.252 0-.876-.714-1.218-1.829-1.342-.752-.086-1.047-.304-1.047-.671 0-.359.29-.641 1.047-.641.863 0 1.026.513 1.026.513h.683s-.175-1.077-1.709-1.077c-1.184 0-1.722.564-1.722 1.205 0 .769.615 1.128 1.722 1.265.927.115 1.154.307 1.154.748 0 .44-.44.687-1.154.687m2.598-1.67c0 1.32 1 2.235 2.235 2.235s2.235-.915 2.235-2.235c0-1.321-1-2.235-2.235-2.235s-2.235.914-2.235 2.235m.658 0c0-.966.705-1.671 1.577-1.671.871 0 1.576.705 1.576 1.671 0 .965-.705 1.67-1.576 1.67s-1.577-.705-1.577-1.67m11.614-.086c0-1.235-.513-2.149-1.782-2.149-1.124 0-1.487.974-1.487.974s-.316-.974-1.572-.974c-.979 0-1.256.773-1.278.82v-.735h-.658v4.299h.658v-2.149c0-.919.282-1.662 1.2-1.662.92 0 1.201.743 1.201 1.662v2.149h.659v-2.149c0-.919.282-1.662 1.2-1.662.919 0 1.201.743 1.201 1.662v2.149h.658zm3.26 2.321c1.547 0 2.051-1.163 2.051-1.163h-.739s-.406.598-1.312.598c-.782 0-1.427-.564-1.555-1.375h3.807c.081-1.59-1.017-2.53-2.252-2.53s-2.234.914-2.234 2.235 1 2.235 2.234 2.235m0-3.906c.787 0 1.44.577 1.556 1.402h-3.115c.12-.825.769-1.402 1.56-1.402m7.311 3.341c-.927 0-1.12-.512-1.12-.512h-.683s.12 1.077 1.803 1.077c1.12 0 1.83-.436 1.83-1.252 0-.876-.714-1.218-1.83-1.342-.752-.086-1.046-.304-1.046-.671 0-.359.29-.641 1.046-.641.864 0 1.026.513 1.026.513h.684s-.176-1.077-1.71-1.077c-1.183 0-1.722.564-1.722 1.205 0 .769.616 1.128 1.722 1.265.928.115 1.154.307 1.154.748 0 .44-.44.687-1.154.687m3.427-3.82h-.658v6.572h.658v-3.17c.022.047.488.983 1.62.983 1.192 0 2.192-.958 2.192-2.235 0-1.278-1-2.235-2.192-2.235-1.133 0-1.598.94-1.62.987zm0 2.15c0-.966.705-1.671 1.577-1.671s1.577.705 1.577 1.671c0 .965-.705 1.67-1.577 1.67s-1.577-.705-1.577-1.67m8.478-1.248s-.457-.987-1.62-.987c-1.192 0-2.192.957-2.192 2.235 0 1.277 1 2.235 2.193 2.235 1.162 0 1.619-.988 1.619-.988v.902h.658v-4.299h-.658zm0 1.248c0 .965-.705 1.67-1.577 1.67-.871 0-1.577-.705-1.577-1.67 0-.966.706-1.671 1.577-1.671.872 0 1.577.705 1.577 1.671m5.884-1.073s-.457-1.162-1.966-1.162a2.207 2.207 0 0 0-2.234 2.235c0 1.277 1 2.235 2.234 2.235 1.509 0 1.966-1.163 1.966-1.163h-.74s-.358.598-1.226.598c-.871 0-1.576-.705-1.576-1.67 0-.966.705-1.671 1.576-1.671.868 0 1.227.598 1.227.598zm2.897 3.308c1.547 0 2.051-1.163 2.051-1.163h-.74s-.405.598-1.311.598c-.782 0-1.427-.564-1.555-1.375h3.807c.081-1.59-1.017-2.53-2.252-2.53s-2.235.914-2.235 2.235 1 2.235 2.235 2.235m0-3.906c.786 0 1.44.577 1.555 1.402h-3.115c.12-.825.77-1.402 1.56-1.402m5.875 3.82h.658v-4.299h-.658zm-.11-5.512c0 .243.2.436.44.436a.44.44 0 0 0 .44-.436.441.441 0 0 0-.88 0m6.016 3.363c0-1.363-.616-2.235-1.885-2.235-1.123 0-1.376.859-1.397.906v-.821h-.658v4.299h.658v-2.149c0-.919.35-1.671 1.312-1.671.961 0 1.312.752 1.312 1.671v2.149h.658zm7.704-1.073s-.457-1.162-1.966-1.162a2.207 2.207 0 0 0-2.234 2.235c0 1.277 1 2.235 2.234 2.235 1.509 0 1.966-1.163 1.966-1.163h-.74s-.358.598-1.226.598c-.871 0-1.576-.705-1.576-1.67 0-.966.705-1.671 1.576-1.671.868 0 1.227.598 1.227.598zm1.688 3.222v-6.478h-.658v6.478zm1.11-2.149c0 1.32 1 2.235 2.236 2.235 1.234 0 2.234-.915 2.234-2.235 0-1.321-1-2.235-2.234-2.235-1.235 0-2.235.914-2.235 2.235m.659 0c0-.966.705-1.671 1.576-1.671s1.577.705 1.577 1.671c0 .965-.705 1.67-1.576 1.67s-1.577-.705-1.577-1.67m4.837 0c0 1.363.615 2.235 1.884 2.235 1.124 0 1.376-.859 1.398-.906v.82h.657v-4.299h-.657v2.15c0 .918-.35 1.67-1.312 1.67s-1.312-.752-1.312-1.67v-2.15h-.658zm8.777-1.248c-.022-.047-.488-.987-1.62-.987-1.192 0-2.192.957-2.192 2.235 0 1.277 1 2.235 2.192 2.235 1.132 0 1.598-.936 1.62-.983v.897h.658v-6.478h-.658zm0 1.248c0 .965-.706 1.67-1.577 1.67-.872 0-1.577-.705-1.577-1.67 0-.966.705-1.671 1.577-1.671.871 0 1.577.705 1.577 1.671"/><defs><clipPath id="a"><path fill="#fff" d="m33.04 67.872 11.505-11.504 11.504 11.504-11.504 11.504z"/></clipPath></defs></svg>