<svg xmlns="http://www.w3.org/2000/svg" width="36" height="36" fill="none" aria-hidden="true" viewBox="0 0 36 36" focusable="false"><path fill="url(#a)" d="M17.992 5.215c-.7 0-.933.467-1.4.934L3.06 28.315c-.233.233-.233.7-.233.933 0 1.167.933 1.634 1.633 1.634h27.066c.934 0 1.634-.467 1.634-1.634 0-.466 0-.466-.233-.933L19.626 6.15c-.467-.467-.934-.934-1.634-.934m0 3.5 7.7 12.834h-1.866l-3.5-3.5-2.334 3.5-2.333-3.5-3.5 3.5h-2.1z"/><defs><linearGradient id="a" x1="17.992" x2="17.992" y1="5.215" y2="30.882" gradientUnits="userSpaceOnUse"><stop stop-color="#c7c7c7"/><stop offset="1" stop-color="#c7c7c7"/></linearGradient></defs></svg>