<svg xmlns="http://www.w3.org/2000/svg" width="31" height="31" fill="none" aria-hidden="true" viewBox="0 0 31 31" focusable="false"><path d="M.377.788h30v30h-30z"/><path stroke="#C7C7C7" stroke-linecap="round" stroke-linejoin="round" stroke-width="2" d="M15.377 18.103a2.315 2.315 0 1 0 0-4.63 2.315 2.315 0 0 0 0 4.63"/><path stroke="#C7C7C7" stroke-linecap="round" stroke-linejoin="round" stroke-width="2" d="M21.087 18.103a1.27 1.27 0 0 0 .255 1.404l.046.046a1.543 1.543 0 1 1-2.184 2.184l-.046-.046a1.27 1.27 0 0 0-1.404-.255 1.27 1.27 0 0 0-.772 1.165v.132a1.543 1.543 0 0 1-3.087 0v-.07a1.27 1.27 0 0 0-.833-1.165 1.27 1.27 0 0 0-1.404.255l-.047.046a1.545 1.545 0 1 1-2.183-2.184l.046-.046a1.27 1.27 0 0 0 .255-1.405 1.27 1.27 0 0 0-1.166-.771h-.13a1.543 1.543 0 0 1 0-3.087h.069a1.27 1.27 0 0 0 1.165-.833 1.27 1.27 0 0 0-.255-1.405l-.046-.046a1.543 1.543 0 1 1 2.184-2.184l.046.047a1.27 1.27 0 0 0 1.404.254h.062a1.27 1.27 0 0 0 .772-1.165v-.131a1.543 1.543 0 0 1 3.086 0v.07a1.27 1.27 0 0 0 .772 1.165 1.27 1.27 0 0 0 1.404-.255l.047-.046a1.545 1.545 0 1 1 2.183 2.183l-.046.047a1.27 1.27 0 0 0-.255 1.404v.062a1.27 1.27 0 0 0 1.166.771h.13a1.544 1.544 0 0 1 0 3.087h-.069a1.27 1.27 0 0 0-1.165.772"/></svg>