<svg xmlns="http://www.w3.org/2000/svg" width="10" height="20" fill="none" aria-hidden="true" viewBox="0 0 10 20" focusable="false"><path fill="#C7C7C7" d="M5.372 15.86a4.2 4.2 0 0 0 1.428-.322 3.4 3.4 0 0 0 1.056-.724q.432-.453.654-1.036.22-.592.22-1.267 0-.663-.25-1.126a2.4 2.4 0 0 0-.674-.784 3.9 3.9 0 0 0-.976-.533 15 15 0 0 0-1.146-.412zm0-12.892q-.764.04-1.337.282-.563.231-.946.613a2.4 2.4 0 0 0-.573.855q-.19.482-.19 1.016 0 .622.22 1.066.222.443.604.764.381.312.875.543.502.221 1.066.412zm.352 5.752q.714.232 1.418.493.704.252 1.257.654t.895.995.342 1.499a4.5 4.5 0 0 1-.292 1.629q-.282.764-.834 1.347-.554.573-1.358.925-.795.353-1.82.402l-.11 2.122a.37.37 0 0 1-.091.221q-.071.09-.211.091h-.362l.12-2.433q-1.287-.06-2.242-.554a5.9 5.9 0 0 1-1.67-1.297l.272-.392q.12-.15.282-.15.09 0 .22.11.132.11.323.281.19.162.452.362.262.192.603.373.353.17.795.301t1.005.161l.332-6.406a21 21 0 0 1-1.337-.462 4.7 4.7 0 0 1-1.167-.664 3.2 3.2 0 0 1-.814-1.005q-.312-.604-.312-1.509 0-.704.262-1.347.27-.654.774-1.157.512-.513 1.257-.824.744-.312 1.71-.342l.08-1.68q0-.14.08-.23a.27.27 0 0 1 .211-.091h.362l-.1 2.02q1.015.072 1.78.453.764.373 1.398 1.006l-.222.342q-.1.17-.271.17-.12 0-.322-.16a4 4 0 0 0-.513-.372 4 4 0 0 0-.774-.392 3.7 3.7 0 0 0-1.116-.242z"/></svg>