<svg xmlns="http://www.w3.org/2000/svg" width="46" height="34" fill="none" aria-hidden="true" viewBox="0 0 46 34" focusable="false"><path fill="#197BBD" d="M18.05 24.91a8.884 8.884 0 1 1-17.769 0 8.884 8.884 0 0 1 17.77 0m25.64 0a8.884 8.884 0 1 1-17.769 0 8.884 8.884 0 0 1 17.77 0"/><path fill="#197BBD" d="M33.714 14.289a8.886 8.886 0 0 1-8.885 8.884 8.887 8.887 0 0 1-8.594-11.143 8.89 8.89 0 0 1 8.594-6.626c4.907 0 9.978 0 8.885 8.885"/><path fill="#197BBD" d="M18.05 24.91a8.884 8.884 0 0 1-8.884 8.884h25.64a8.884 8.884 0 0 1-8.695-10.713 8.887 8.887 0 0 1-9.996-7.056H9.166a8.884 8.884 0 0 1 8.884 8.885"/><path fill="#197BBD" d="M16.115 16.025a8.9 8.9 0 0 1 .12-3.995c-.743 1.332-2.965 3.995-5.916 3.995z"/><circle cx="34.948" cy="11.584" r="8.015" fill="#FFC145" transform="rotate(-30 34.948 11.584)"/><path fill="#404040" d="M38.184 11.774q.429.743.223 1.544-.207.801-.888 1.427l.345.598q.145.25.066.515a.63.63 0 0 1-.315.414.62.62 0 0 1-.506.06.65.65 0 0 1-.403-.32l-.312-.54a4 4 0 0 1-1.084.329q-.525.07-1.13-.042-.395-.081-.557-.361a.6.6 0 0 1-.058-.481.6.6 0 0 1 .295-.402.6.6 0 0 1 .395-.074q.438.069.792.057a2.3 2.3 0 0 0 .695-.156l-1.087-1.882q-2.145.763-3.06-.82-.462-.8-.217-1.625.24-.833 1.032-1.444l-.184-.319a.667.667 0 0 1 .249-.929.62.62 0 0 1 .505-.06.65.65 0 0 1 .404.32l.206.357q.904-.329 1.697-.181.408.06.575.35a.65.65 0 0 1 .064.49.6.6 0 0 1-.29.387.5.5 0 0 1-.312.064q-.428-.075-1.06.058l1.031 1.786q1.065-.32 1.74-.13.67.18 1.149 1.01m-5.478-.84q.184.319.504.404.314.076.777-.036L33.062 9.7q-.351.305-.437.625a.77.77 0 0 0 .081.61m4.144 2.652q.213-.277.28-.56a.7.7 0 0 0-.065-.516.83.83 0 0 0-.422-.374q-.272-.114-.668-.065z"/></svg>