<svg xmlns="http://www.w3.org/2000/svg" width="212" height="142" fill="none" aria-hidden="true" viewBox="0 0 212 142" focusable="false"><path fill="#fff" fill-opacity=".12" d="M104.866 115.569c0 28.856-23.393 52.249-52.25 52.249S.367 144.425.367 115.569c0-15.214 6.503-28.91 16.88-38.458 9.306-8.563 21.727-13.791 35.37-13.791 28.856 0 52.249 23.393 52.249 52.249"/><path fill="#fff" fill-opacity=".12" d="M104.866 115.569c0 28.856-23.393 52.249-52.25 52.249h150.795c-28.856 0-52.249-23.393-52.249-52.249 0-3.686.382-7.283 1.108-10.753a53 53 0 0 1-7.536.539c-25.361 0-46.502-18.069-51.252-42.035H52.618c28.856 0 52.249 23.393 52.249 52.249M93.483 63.32a52.5 52.5 0 0 1-.998-10.214c0-4.59.592-9.043 1.704-13.285C89.822 47.654 76.752 63.32 59.4 63.32z"/><path fill="#fff" fill-opacity=".12" fill-rule="evenodd" d="M203.411 167.818c28.856 0 52.249-23.393 52.249-52.249s-23.393-52.25-52.249-52.25c-2.559 0-5.075.185-7.536.54-4.453 21.288-21.864 37.816-43.605 40.957a52.5 52.5 0 0 0-1.108 10.753c0 28.856 23.393 52.249 52.249 52.249" clip-rule="evenodd"/><path fill="#fff" fill-opacity=".12" d="M195.875 63.86c-4.453 21.287-21.864 37.815-43.605 40.956 4.453-21.289 21.864-37.816 43.605-40.957"/><path fill="#fff" fill-opacity=".12" d="M196.983 53.106c0-28.856-23.393-52.25-52.249-52.25-24.266 0-44.668 16.543-50.545 38.965a52.3 52.3 0 0 0-1.704 13.285c0 3.495.343 6.91.998 10.214 4.749 23.966 25.89 42.035 51.251 42.035a53 53 0 0 0 7.536-.539c4.453-21.289 21.864-37.816 43.605-40.957a52.5 52.5 0 0 0 1.108-10.753"/></svg>