<svg xmlns="http://www.w3.org/2000/svg" width="137" height="34" fill="none" aria-hidden="true" viewBox="0 0 137 34" focusable="false"><path fill="#0F4264" d="M60.288 16.64q1.424 0 2.295.451.87.435.87 1.173 0 .368-.217.653a.7.7 0 0 1-.57.268q-.267 0-.435-.067a3 3 0 0 1-.335-.201 1.7 1.7 0 0 0-.302-.218 2 2 0 0 0-.502-.15 2.6 2.6 0 0 0-.52-.068q-1.255 0-1.975.787-.705.771-.704 2.027 0 1.206.72 2.01.72.787 1.843.787.82 0 1.222-.201.101-.051.268-.168.185-.134.335-.2a.9.9 0 0 1 .369-.068q.418 0 .653.268a.96.96 0 0 1 .25.687q0 .403-.468.753-.47.352-1.24.57-.77.2-1.64.2-1.29 0-2.278-.602a4.1 4.1 0 0 1-1.508-1.658q-.535-1.071-.535-2.378 0-1.357.552-2.412.57-1.055 1.575-1.641 1.005-.603 2.277-.603m6.894 8.105a1 1 0 0 1-1.021 1.021.96.96 0 0 1-.704-.284q-.285-.302-.284-.737v-10.35q0-.435.284-.72.302-.302.737-.302.42 0 .703.302.285.285.285.72zm10.782-3.45q0 1.34-.603 2.411a4.26 4.26 0 0 1-1.658 1.642 4.6 4.6 0 0 1-2.295.586q-1.273 0-2.31-.586a4.3 4.3 0 0 1-1.642-1.642q-.603-1.071-.603-2.411t.603-2.395a4.26 4.26 0 0 1 1.641-1.658 4.5 4.5 0 0 1 2.311-.603q1.256 0 2.295.603 1.055.585 1.658 1.658.603 1.055.603 2.395m-2.01 0q0-.82-.352-1.457a2.44 2.44 0 0 0-2.194-1.357 2.46 2.46 0 0 0-1.29.352q-.569.352-.92 1.005-.336.636-.335 1.457 0 .82.335 1.457.351.637.92.988.587.352 1.29.352.705 0 1.273-.352.586-.352.921-.988.352-.636.352-1.457m10.338-4.489q.435 0 .72.302.284.285.284.72v4.254q0 1.81-1.005 2.83-.988 1.022-2.83 1.022t-2.83-1.022q-.988-1.02-.988-2.83v-4.254q0-.435.284-.72a.95.95 0 0 1 .72-.302q.435 0 .72.302.285.285.285.72v4.254q0 1.022.453 1.524.452.486 1.356.486.921 0 1.374-.486.451-.503.452-1.524v-4.254q0-.435.284-.72a.95.95 0 0 1 .72-.302m10.432-3.433q.435 0 .72.285.285.284.285.737v10.35q0 .435-.285.737a.98.98 0 0 1-.72.284.98.98 0 0 1-.72-.284 1.07 1.07 0 0 1-.285-.72q-.42.485-1.139.837a3.4 3.4 0 0 1-1.49.335 3.87 3.87 0 0 1-2.094-.586 4.3 4.3 0 0 1-1.49-1.658q-.537-1.056-.536-2.395 0-1.34.536-2.395.536-1.072 1.457-1.658a3.73 3.73 0 0 1 2.06-.603q.803 0 1.507.302.703.285 1.189.736v-3.282q0-.435.285-.72a.95.95 0 0 1 .72-.302m-3.383 10.72q1.089 0 1.775-.787.687-.804.687-2.01t-.687-2.01-1.775-.804q-1.072 0-1.759.804t-.686 2.01.67 2.01q.686.787 1.775.787m10.468-7.453q1.424 0 2.294.452.871.435.871 1.173 0 .368-.218.653a.7.7 0 0 1-.569.268q-.268 0-.436-.067a3 3 0 0 1-.335-.201q-.15-.135-.301-.218a2 2 0 0 0-.502-.15 2.6 2.6 0 0 0-.52-.068q-1.256 0-1.976.787-.703.771-.703 2.027 0 1.206.72 2.01.72.787 1.842.787.82 0 1.223-.201.1-.051.268-.168a2 2 0 0 1 .335-.2.9.9 0 0 1 .368-.068q.419 0 .653.268.252.268.251.687 0 .403-.468.753-.47.352-1.24.57-.77.2-1.641.2-1.29 0-2.278-.602a4.1 4.1 0 0 1-1.507-1.658q-.536-1.071-.536-2.378 0-1.357.553-2.412.569-1.055 1.574-1.641 1.005-.603 2.278-.603m11.968 0q.437 0 .72.285.285.285.285.737v7.084q0 .435-.285.737a.97.97 0 0 1-.72.284.98.98 0 0 1-.72-.284 1.08 1.08 0 0 1-.285-.72q-.418.485-1.138.837a3.4 3.4 0 0 1-1.491.335q-1.155 0-2.093-.586-.938-.603-1.491-1.658-.536-1.056-.536-2.395 0-1.34.536-2.395.536-1.072 1.457-1.658a3.73 3.73 0 0 1 2.06-.603q.804 0 1.507.302.704.285 1.189.736v-.016q0-.435.285-.72a.95.95 0 0 1 .72-.302m-3.383 7.453q1.089 0 1.776-.787.686-.804.686-2.01t-.686-2.01-1.776-.804q-1.071 0-1.758.804t-.687 2.01.67 2.01q.687.787 1.775.787m6.047.284a.8.8 0 0 1-.151-.502q0-.435.436-.737.234-.15.485-.15.352 0 .67.318.502.519 1.039.77.552.25 1.323.251 1.306-.05 1.306-.988 0-.486-.452-.737-.436-.251-1.374-.502a12.5 12.5 0 0 1-1.591-.536 2.9 2.9 0 0 1-1.055-.804q-.435-.553-.435-1.474 0-.805.452-1.39a3 3 0 0 1 1.206-.921 3.9 3.9 0 0 1 1.591-.335q.854 0 1.708.318.855.318 1.34.938.218.268.218.603a.78.78 0 0 1-.319.636.84.84 0 0 1-.535.185.82.82 0 0 1-.603-.235 2.1 2.1 0 0 0-.787-.586 2.5 2.5 0 0 0-1.072-.218q-1.273 0-1.273.921 0 .369.234.603.235.219.586.352.37.117 1.022.302.904.25 1.507.519.603.267 1.022.82t.419 1.457q0 .82-.486 1.44a3.1 3.1 0 0 1-1.256.922 4 4 0 0 1-1.558.318 5.7 5.7 0 0 1-2.06-.369 3.43 3.43 0 0 1-1.557-1.189m13.305-7.737q1.658 0 2.294 1.022.636 1.005.636 2.796v4.288q0 .435-.284.737a.98.98 0 0 1-.721.284.98.98 0 0 1-.72-.284 1.04 1.04 0 0 1-.284-.737v-4.288q0-.921-.369-1.44-.351-.536-1.256-.536-.937 0-1.474.57-.519.552-.519 1.407v4.287q0 .435-.285.737a.97.97 0 0 1-.72.284.98.98 0 0 1-.72-.284q-.285-.302-.285-.737v-10.35q0-.435.285-.72a.95.95 0 0 1 .72-.302q.436 0 .72.302.285.285.285.72v3.701a4 4 0 0 1 1.139-1.021 2.9 2.9 0 0 1 1.558-.436"/><path fill="#197BBD" d="M18.44 24.697a8.884 8.884 0 1 1-17.768 0 8.884 8.884 0 0 1 17.769 0m25.641 0a8.884 8.884 0 1 1-17.77 0 8.884 8.884 0 0 1 17.77 0"/><path fill="#197BBD" d="M34.104 14.076a8.886 8.886 0 0 1-8.884 8.885 8.887 8.887 0 0 1-8.595-11.144 8.884 8.884 0 0 1 17.479 2.259"/><path fill="#197BBD" stroke="#197BBD" d="M18.44 24.697a8.884 8.884 0 0 1-8.884 8.885h25.641a8.884 8.884 0 0 1-8.696-10.713 8.887 8.887 0 0 1-9.996-7.056H9.556a8.884 8.884 0 0 1 8.885 8.884Z"/><path fill="#197BBD" stroke="#197BBD" d="M16.505 15.813a8.9 8.9 0 0 1 .12-3.996c-.742 1.332-2.965 3.996-5.915 3.996z"/><circle cx="35.339" cy="11.372" r="8.015" fill="#FFC145" transform="rotate(-30 35.34 11.372)"/><path fill="#404040" d="M38.575 11.561q.429.743.222 1.545t-.888 1.426l.346.598q.144.252.066.516a.63.63 0 0 1-.315.413.62.62 0 0 1-.506.06.65.65 0 0 1-.404-.32l-.312-.54a4 4 0 0 1-1.083.33q-.525.07-1.131-.043-.394-.081-.556-.36a.6.6 0 0 1-.059-.481.6.6 0 0 1 .296-.403.6.6 0 0 1 .395-.073q.438.069.792.057a2.3 2.3 0 0 0 .694-.156l-1.086-1.882q-2.145.762-3.06-.82-.462-.801-.217-1.625.24-.833 1.031-1.445l-.183-.318a.667.667 0 0 1 .249-.929.62.62 0 0 1 .505-.06.65.65 0 0 1 .404.32l.206.357q.904-.33 1.696-.182.409.06.576.35a.65.65 0 0 1 .064.49.6.6 0 0 1-.291.388.5.5 0 0 1-.311.063q-.43-.075-1.06.059l1.03 1.785q1.065-.318 1.74-.129.67.18 1.15 1.01m-5.478-.84q.184.32.504.405.314.076.776-.037l-.925-1.602q-.352.306-.436.626a.77.77 0 0 0 .081.609m4.143 2.653q.213-.278.281-.561a.7.7 0 0 0-.066-.515.83.83 0 0 0-.421-.374q-.272-.114-.668-.065z"/></svg>