<svg width="31" height="31" viewBox="0 0 31 31" fill="none" xmlns="http://www.w3.org/2000/svg">
<rect width="30" height="30" transform="translate(0.376953 0.787598)" fill="none"/>
<path d="M15.3772 18.1029C16.6557 18.1029 17.6921 17.0665 17.6921 15.788C17.6921 14.5095 16.6557 13.473 15.3772 13.473C14.0987 13.473 13.0623 14.5095 13.0623 15.788C13.0623 17.0665 14.0987 18.1029 15.3772 18.1029Z" stroke="#C7C7C7" stroke-width="2" stroke-linecap="round" stroke-linejoin="round"/>
<path d="M21.0872 18.1027C20.9844 18.3354 20.9538 18.5936 20.9992 18.8439C21.0446 19.0942 21.1639 19.3252 21.3418 19.5071L21.3881 19.5534C21.5316 19.6967 21.6454 19.8669 21.7231 20.0543C21.8008 20.2416 21.8407 20.4424 21.8407 20.6453C21.8407 20.8481 21.8008 21.0489 21.7231 21.2362C21.6454 21.4236 21.5316 21.5938 21.3881 21.7371C21.2448 21.8806 21.0746 21.9945 20.8872 22.0721C20.6999 22.1498 20.499 22.1898 20.2962 22.1898C20.0934 22.1898 19.8926 22.1498 19.7052 22.0721C19.5179 21.9945 19.3477 21.8806 19.2044 21.7371L19.1581 21.6908C18.9762 21.5129 18.7452 21.3936 18.4949 21.3482C18.2446 21.3028 17.9864 21.3335 17.7537 21.4362C17.5254 21.534 17.3308 21.6964 17.1937 21.9035C17.0566 22.1105 16.983 22.3531 16.982 22.6014V22.7326C16.982 23.1419 16.8194 23.5344 16.53 23.8238C16.2406 24.1132 15.848 24.2758 15.4387 24.2758C15.0294 24.2758 14.6369 24.1132 14.3475 23.8238C14.058 23.5344 13.8954 23.1419 13.8954 22.7326V22.6631C13.8895 22.4077 13.8068 22.16 13.6582 21.9522C13.5095 21.7444 13.3018 21.5861 13.0621 21.4979C12.8293 21.3952 12.5712 21.3646 12.3208 21.41C12.0705 21.4553 11.8395 21.5747 11.6577 21.7526L11.6114 21.7989C11.468 21.9424 11.2978 22.0562 11.1105 22.1339C10.9231 22.2115 10.7223 22.2515 10.5195 22.2515C10.3167 22.2515 10.1159 22.2115 9.92851 22.1339C9.74116 22.0562 9.57095 21.9424 9.42762 21.7989C9.28413 21.6555 9.1703 21.4853 9.09264 21.298C9.01497 21.1106 8.975 20.9098 8.975 20.707C8.975 20.5042 9.01497 20.3034 9.09264 20.116C9.1703 19.9287 9.28413 19.7584 9.42762 19.6151L9.47392 19.5688C9.65182 19.387 9.77115 19.156 9.81654 18.9057C9.86192 18.6553 9.83128 18.3972 9.72857 18.1644C9.63075 17.9362 9.46833 17.7416 9.26131 17.6044C9.05428 17.4673 8.81169 17.3938 8.56338 17.3928H8.4322C8.0229 17.3928 7.63036 17.2302 7.34093 16.9408C7.05151 16.6513 6.88892 16.2588 6.88892 15.8495C6.88892 15.4402 7.05151 15.0476 7.34093 14.7582C7.63036 14.4688 8.0229 14.3062 8.4322 14.3062H8.50165C8.75706 14.3002 9.00477 14.2176 9.21257 14.0689C9.42037 13.9203 9.57865 13.7126 9.66683 13.4728C9.76955 13.2401 9.80019 12.9819 9.7548 12.7316C9.70942 12.4813 9.59008 12.2503 9.41219 12.0684L9.36589 12.0221C9.2224 11.8788 9.10857 11.7086 9.03091 11.5213C8.95324 11.3339 8.91327 11.1331 8.91327 10.9303C8.91327 10.7275 8.95324 10.5266 9.03091 10.3393C9.10857 10.1519 9.2224 9.98172 9.36589 9.83839C9.50922 9.6949 9.67943 9.58107 9.86678 9.5034C10.0541 9.42574 10.255 9.38576 10.4578 9.38576C10.6606 9.38576 10.8614 9.42574 11.0488 9.5034C11.2361 9.58107 11.4063 9.6949 11.5496 9.83839L11.5959 9.88469C11.7778 10.0626 12.0088 10.1819 12.2591 10.2273C12.5094 10.2727 12.7676 10.242 13.0003 10.1393H13.0621C13.2903 10.0415 13.4849 9.8791 13.622 9.67207C13.7591 9.46505 13.8327 9.22245 13.8337 8.97415V8.84297C13.8337 8.43366 13.9963 8.04112 14.2857 7.7517C14.5752 7.46227 14.9677 7.29968 15.377 7.29968C15.7863 7.29968 16.1788 7.46227 16.4683 7.7517C16.7577 8.04112 16.9203 8.43366 16.9203 8.84297V8.91241C16.9213 9.16072 16.9949 9.40332 17.132 9.61034C17.2691 9.81736 17.4637 9.97978 17.6919 10.0776C17.9247 10.1803 18.1828 10.211 18.4332 10.1656C18.6835 10.1202 18.9145 10.0008 19.0963 9.82295L19.1426 9.77666C19.286 9.63317 19.4562 9.51933 19.6435 9.44167C19.8309 9.36401 20.0317 9.32403 20.2345 9.32403C20.4373 9.32403 20.6381 9.36401 20.8255 9.44167C21.0128 9.51933 21.183 9.63317 21.3264 9.77666C21.4699 9.91999 21.5837 10.0902 21.6614 10.2775C21.739 10.4649 21.779 10.6657 21.779 10.8685C21.779 11.0713 21.739 11.2722 21.6614 11.4595C21.5837 11.6469 21.4699 11.8171 21.3264 11.9604L21.2801 12.0067C21.1022 12.1886 20.9828 12.4195 20.9375 12.6699C20.8921 12.9202 20.9227 13.1784 21.0254 13.4111V13.4728C21.1232 13.7011 21.2857 13.8957 21.4927 14.0328C21.6997 14.1699 21.9423 14.2435 22.1906 14.2445H22.3218C22.7311 14.2445 23.1236 14.4071 23.4131 14.6965C23.7025 14.9859 23.8651 15.3785 23.8651 15.7878C23.8651 16.1971 23.7025 16.5896 23.4131 16.879C23.1236 17.1685 22.7311 17.331 22.3218 17.331H22.2523C22.004 17.332 21.7614 17.4056 21.5544 17.5427C21.3474 17.6798 21.185 17.8745 21.0872 18.1027V18.1027Z" stroke="#C7C7C7" stroke-width="2" stroke-linecap="round" stroke-linejoin="round"/>
</svg>
