<svg width="10" height="20" viewBox="0 0 10 20" fill="none" xmlns="http://www.w3.org/2000/svg">
<path d="M5.37209 15.86C5.9084 15.8265 6.38438 15.7193 6.80003 15.5382C7.21567 15.3505 7.56763 15.1092 7.8559 14.8142C8.14417 14.5125 8.36205 14.1673 8.50953 13.7785C8.65702 13.3829 8.73076 12.9606 8.73076 12.5114C8.73076 12.069 8.64696 11.6935 8.47937 11.3852C8.31177 11.0768 8.08718 10.8153 7.80562 10.6008C7.52405 10.3863 7.19891 10.2086 6.8302 10.0678C6.46818 9.92035 6.08606 9.78292 5.68382 9.65554L5.37209 15.86ZM5.37209 2.96836C4.86259 2.99518 4.41678 3.08903 4.03465 3.24993C3.65923 3.40412 3.34415 3.60859 3.0894 3.86334C2.83465 4.11138 2.64359 4.3963 2.51621 4.71809C2.38884 5.03988 2.32515 5.37843 2.32515 5.73374C2.32515 6.14938 2.39889 6.50469 2.54638 6.79966C2.69387 7.09464 2.89498 7.34939 3.14973 7.56391C3.40448 7.77174 3.6961 7.95274 4.0246 8.10693C4.35979 8.25442 4.7151 8.39185 5.09052 8.51922L5.37209 2.96836ZM5.72405 8.72034C6.20003 8.87453 6.67265 9.03878 7.14193 9.21308C7.61121 9.38068 8.0302 9.59856 8.39892 9.86672C8.76763 10.1349 9.06596 10.4667 9.29389 10.8623C9.52183 11.2578 9.63579 11.7572 9.63579 12.3606C9.63579 12.9371 9.53859 13.4801 9.34417 13.9896C9.15646 14.4991 8.87825 14.9483 8.50953 15.3371C8.14082 15.7193 7.6883 16.0276 7.15199 16.2623C6.62237 16.4969 6.01567 16.631 5.33187 16.6645L5.22125 18.7863C5.21455 18.8735 5.18438 18.9472 5.13075 19.0075C5.08382 19.0679 5.01343 19.098 4.91957 19.098H4.55756L4.67823 16.6645C3.82013 16.6243 3.07264 16.4399 2.43576 16.1114C1.80559 15.7829 1.24917 15.3505 0.766483 14.8142L1.03799 14.422C1.11844 14.3215 1.2123 14.2712 1.31956 14.2712C1.37989 14.2712 1.45364 14.3081 1.54079 14.3818C1.62794 14.4556 1.7352 14.5494 1.86258 14.6634C1.98995 14.7706 2.14079 14.8913 2.31509 15.0254C2.4894 15.1528 2.69051 15.2768 2.91845 15.3975C3.15309 15.5114 3.41789 15.612 3.71286 15.6991C4.00784 15.7863 4.34303 15.8399 4.71846 15.86L5.0503 9.45442C4.59443 9.31364 4.14862 9.15945 3.71286 8.99185C3.27711 8.81755 2.88828 8.59632 2.54638 8.32816C2.21118 8.0533 1.93967 7.7181 1.73185 7.32257C1.52403 6.92034 1.42012 6.41754 1.42012 5.81419C1.42012 5.34491 1.50727 4.89575 1.68157 4.46669C1.86258 4.03094 2.12068 3.64546 2.45588 3.31026C2.79778 2.96836 3.21677 2.6935 3.71286 2.48568C4.20896 2.27786 4.77879 2.16389 5.42237 2.14378L5.50282 0.464442C5.50282 0.370586 5.52963 0.293491 5.58326 0.233156C5.6369 0.172821 5.70729 0.142653 5.79444 0.142653H6.15645L6.05589 2.16389C6.73299 2.21082 7.32629 2.36166 7.83579 2.61641C8.34529 2.86445 8.81121 3.19965 9.23356 3.622L9.01233 3.9639C8.94529 4.07786 8.85479 4.13485 8.74082 4.13485C8.66037 4.13485 8.55311 4.08122 8.41903 3.97395C8.29165 3.85999 8.1207 3.73596 7.90618 3.60189C7.69836 3.4611 7.44025 3.33038 7.13187 3.2097C6.82349 3.08233 6.45142 3.00188 6.01567 2.96836L5.72405 8.72034Z" fill="#C7C7C7"/>
</svg>
