<svg width="19" height="19" viewBox="0 0 19 19" fill="none" xmlns="http://www.w3.org/2000/svg">
<path d="M7.08398 17.1801C7.50311 17.1801 7.84289 16.8403 7.84289 16.4212C7.84289 16.002 7.50311 15.6623 7.08398 15.6623C6.66485 15.6623 6.32507 16.002 6.32507 16.4212C6.32507 16.8403 6.66485 17.1801 7.08398 17.1801Z" stroke="#F8964C" stroke-width="2" stroke-linecap="round" stroke-linejoin="round"/>
<path d="M15.4306 17.1801C15.8498 17.1801 16.1895 16.8403 16.1895 16.4212C16.1895 16.002 15.8498 15.6623 15.4306 15.6623C15.0115 15.6623 14.6717 16.002 14.6717 16.4212C14.6717 16.8403 15.0115 17.1801 15.4306 17.1801Z" stroke="#F8964C" stroke-width="2" stroke-linecap="round" stroke-linejoin="round"/>
<path d="M1.01074 1.24283H4.04637L6.08024 11.4046C6.14964 11.754 6.33972 12.0678 6.6172 12.2912C6.89468 12.5146 7.2419 12.6333 7.59805 12.6264H14.9746C15.3308 12.6333 15.678 12.5146 15.9555 12.2912C16.233 12.0678 16.423 11.754 16.4924 11.4046L17.7067 5.03736H4.80528" stroke="#F8964C" stroke-width="2" stroke-linecap="round" stroke-linejoin="round"/>
</svg>
