<svg width="137" height="34" viewBox="0 0 137 34" fill="none" xmlns="http://www.w3.org/2000/svg">
<path d="M60.2881 16.6391C61.2371 16.6391 62.0019 16.7898 62.5825 17.0912C63.1631 17.3815 63.4534 17.7723 63.4534 18.2636C63.4534 18.5092 63.3808 18.7269 63.2357 18.9167C63.0905 19.0954 62.9007 19.1847 62.6663 19.1847C62.4876 19.1847 62.3425 19.1624 62.2308 19.1177C62.1192 19.0619 62.0075 18.9949 61.8959 18.9167C61.7954 18.8274 61.6949 18.7548 61.5944 18.699C61.4828 18.6432 61.3153 18.5929 61.092 18.5483C60.8799 18.5036 60.7068 18.4813 60.5728 18.4813C59.7355 18.4813 59.0767 18.7437 58.5966 19.2684C58.1277 19.782 57.8932 20.4575 57.8932 21.2949C57.8932 22.0987 58.1333 22.7686 58.6134 23.3046C59.0935 23.8293 59.7075 24.0917 60.4556 24.0917C61.0027 24.0917 61.4102 24.0247 61.6782 23.8907C61.7452 23.8572 61.8345 23.8014 61.9461 23.7233C62.0689 23.6339 62.1806 23.5669 62.2811 23.5223C62.3816 23.4776 62.5044 23.4553 62.6495 23.4553C62.9286 23.4553 63.1464 23.5446 63.3027 23.7233C63.4701 23.9019 63.5539 24.1308 63.5539 24.4099C63.5539 24.6779 63.3976 24.9291 63.085 25.1635C62.7723 25.398 62.3592 25.5878 61.8456 25.733C61.332 25.8669 60.785 25.9339 60.2044 25.9339C59.3447 25.9339 58.5855 25.733 57.9267 25.331C57.2792 24.9291 56.7767 24.3764 56.4194 23.673C56.0622 22.9585 55.8835 22.1657 55.8835 21.2949C55.8835 20.3905 56.0677 19.5866 56.4362 18.8832C56.8158 18.1798 57.3406 17.6327 58.0105 17.242C58.6804 16.84 59.4396 16.6391 60.2881 16.6391ZM67.1822 24.7449C67.1822 25.0351 67.0817 25.2808 66.8807 25.4817C66.6909 25.6715 66.4509 25.7664 66.1606 25.7664C65.8815 25.7664 65.647 25.6715 65.4572 25.4817C65.2674 25.2808 65.1725 25.0351 65.1725 24.7449V14.3949C65.1725 14.1046 65.2674 13.8646 65.4572 13.6748C65.6582 13.4738 65.9038 13.3733 66.1941 13.3733C66.4732 13.3733 66.7077 13.4738 66.8975 13.6748C67.0873 13.8646 67.1822 14.1046 67.1822 14.3949V24.7449ZM77.9637 21.2949C77.9637 22.1881 77.7627 22.9919 77.3608 23.7065C76.9588 24.4099 76.4061 24.957 75.7028 25.3478C75.0105 25.7385 74.2457 25.9339 73.4083 25.9339C72.5598 25.9339 71.7894 25.7385 71.0972 25.3478C70.405 24.957 69.8579 24.4099 69.4559 23.7065C69.054 22.9919 68.853 22.1881 68.853 21.2949C68.853 20.4017 69.054 19.6034 69.4559 18.9C69.8579 18.1854 70.405 17.6327 71.0972 17.242C71.7894 16.84 72.5598 16.6391 73.4083 16.6391C74.2457 16.6391 75.0105 16.84 75.7028 17.242C76.4061 17.6327 76.9588 18.1854 77.3608 18.9C77.7627 19.6034 77.9637 20.4017 77.9637 21.2949ZM75.954 21.2949C75.954 20.7478 75.8367 20.2621 75.6023 19.8378C75.379 19.4024 75.0719 19.0674 74.6812 18.833C74.3015 18.5985 73.8773 18.4813 73.4083 18.4813C72.9394 18.4813 72.5096 18.5985 72.1188 18.833C71.7392 19.0674 71.4321 19.4024 71.1977 19.8378C70.9744 20.2621 70.8627 20.7478 70.8627 21.2949C70.8627 21.842 70.9744 22.3276 71.1977 22.7519C71.4321 23.1762 71.7392 23.5055 72.1188 23.74C72.5096 23.9745 72.9394 24.0917 73.4083 24.0917C73.8773 24.0917 74.3015 23.9745 74.6812 23.74C75.0719 23.5055 75.379 23.1762 75.6023 22.7519C75.8367 22.3276 75.954 21.842 75.954 21.2949ZM86.2915 16.8065C86.5818 16.8065 86.8218 16.907 87.0116 17.108C87.2014 17.2978 87.2963 17.5378 87.2963 17.8281V22.082C87.2963 23.2878 86.9614 24.2313 86.2915 24.9123C85.6328 25.5934 84.6893 25.9339 83.4612 25.9339C82.233 25.9339 81.2896 25.5934 80.6308 24.9123C79.9721 24.2313 79.6427 23.2878 79.6427 22.082V17.8281C79.6427 17.5378 79.7376 17.2978 79.9274 17.108C80.1172 16.907 80.3573 16.8065 80.6476 16.8065C80.9379 16.8065 81.1779 16.907 81.3677 17.108C81.5575 17.2978 81.6524 17.5378 81.6524 17.8281V22.082C81.6524 22.7631 81.8032 23.2711 82.1046 23.606C82.4061 23.9298 82.8583 24.0917 83.4612 24.0917C84.0752 24.0917 84.533 23.9298 84.8345 23.606C85.1359 23.2711 85.2866 22.7631 85.2866 22.082V17.8281C85.2866 17.5378 85.3815 17.2978 85.5713 17.108C85.7612 16.907 86.0012 16.8065 86.2915 16.8065ZM96.7237 13.3733C97.014 13.3733 97.2541 13.4682 97.4439 13.658C97.6337 13.8478 97.7286 14.0934 97.7286 14.3949V24.7449C97.7286 25.0351 97.6337 25.2808 97.4439 25.4817C97.2541 25.6715 97.014 25.7664 96.7237 25.7664C96.4335 25.7664 96.1934 25.6715 96.0036 25.4817C95.825 25.2919 95.7301 25.0519 95.7189 24.7616C95.4398 25.0854 95.0602 25.3645 94.5801 25.599C94.1111 25.8223 93.6143 25.9339 93.0895 25.9339C92.3192 25.9339 91.6213 25.7385 90.9961 25.3478C90.3709 24.9458 89.874 24.3932 89.5056 23.6898C89.1483 22.9864 88.9697 22.1881 88.9697 21.2949C88.9697 20.4017 89.1483 19.6034 89.5056 18.9C89.8629 18.1854 90.3485 17.6327 90.9626 17.242C91.5878 16.84 92.2745 16.6391 93.0225 16.6391C93.5585 16.6391 94.0609 16.7395 94.5298 16.9405C94.9988 17.1303 95.3951 17.376 95.7189 17.6774V14.3949C95.7189 14.1046 95.8138 13.8646 96.0036 13.6748C96.1934 13.4738 96.4335 13.3733 96.7237 13.3733ZM93.3407 24.0917C94.0665 24.0917 94.6582 23.8293 95.116 23.3046C95.5737 22.7686 95.8026 22.0987 95.8026 21.2949C95.8026 20.491 95.5737 19.8211 95.116 19.2852C94.6582 18.7492 94.0665 18.4813 93.3407 18.4813C92.6262 18.4813 92.04 18.7492 91.5823 19.2852C91.1245 19.8211 90.8956 20.491 90.8956 21.2949C90.8956 22.0987 91.1189 22.7686 91.5655 23.3046C92.0233 23.8293 92.615 24.0917 93.3407 24.0917ZM103.809 16.6391C104.758 16.6391 105.523 16.7898 106.103 17.0912C106.684 17.3815 106.974 17.7723 106.974 18.2636C106.974 18.5092 106.901 18.7269 106.756 18.9167C106.611 19.0954 106.421 19.1847 106.187 19.1847C106.008 19.1847 105.863 19.1624 105.751 19.1177C105.64 19.0619 105.528 18.9949 105.416 18.9167C105.316 18.8274 105.216 18.7548 105.115 18.699C105.003 18.6432 104.836 18.5929 104.613 18.5483C104.4 18.5036 104.227 18.4813 104.093 18.4813C103.256 18.4813 102.597 18.7437 102.117 19.2684C101.648 19.782 101.414 20.4575 101.414 21.2949C101.414 22.0987 101.654 22.7686 102.134 23.3046C102.614 23.8293 103.228 24.0917 103.976 24.0917C104.523 24.0917 104.931 24.0247 105.199 23.8907C105.266 23.8572 105.355 23.8014 105.467 23.7233C105.59 23.6339 105.701 23.5669 105.802 23.5223C105.902 23.4776 106.025 23.4553 106.17 23.4553C106.449 23.4553 106.667 23.5446 106.823 23.7233C106.991 23.9019 107.074 24.1308 107.074 24.4099C107.074 24.6779 106.918 24.9291 106.606 25.1635C106.293 25.398 105.88 25.5878 105.366 25.733C104.853 25.8669 104.306 25.9339 103.725 25.9339C102.865 25.9339 102.106 25.733 101.447 25.331C100.8 24.9291 100.297 24.3764 99.94 23.673C99.5828 22.9585 99.4041 22.1657 99.4041 21.2949C99.4041 20.3905 99.5883 19.5866 99.9568 18.8832C100.336 18.1798 100.861 17.6327 101.531 17.242C102.201 16.84 102.96 16.6391 103.809 16.6391ZM115.777 16.6391C116.068 16.6391 116.308 16.734 116.497 16.9238C116.687 17.1136 116.782 17.3592 116.782 17.6607V24.7449C116.782 25.0351 116.687 25.2808 116.497 25.4817C116.308 25.6715 116.068 25.7664 115.777 25.7664C115.487 25.7664 115.247 25.6715 115.057 25.4817C114.879 25.2919 114.784 25.0519 114.772 24.7616C114.493 25.0854 114.114 25.3645 113.634 25.599C113.165 25.8223 112.668 25.9339 112.143 25.9339C111.373 25.9339 110.675 25.7385 110.05 25.3478C109.424 24.9458 108.928 24.3932 108.559 23.6898C108.202 22.9864 108.023 22.1881 108.023 21.2949C108.023 20.4017 108.202 19.6034 108.559 18.9C108.916 18.1854 109.402 17.6327 110.016 17.242C110.641 16.84 111.328 16.6391 112.076 16.6391C112.612 16.6391 113.114 16.7395 113.583 16.9405C114.052 17.1303 114.449 17.376 114.772 17.6774V17.6607C114.772 17.3704 114.867 17.1303 115.057 16.9405C115.247 16.7395 115.487 16.6391 115.777 16.6391ZM112.394 24.0917C113.12 24.0917 113.712 23.8293 114.17 23.3046C114.627 22.7686 114.856 22.0987 114.856 21.2949C114.856 20.491 114.627 19.8211 114.17 19.2852C113.712 18.7492 113.12 18.4813 112.394 18.4813C111.68 18.4813 111.094 18.7492 110.636 19.2852C110.178 19.8211 109.949 20.491 109.949 21.2949C109.949 22.0987 110.172 22.7686 110.619 23.3046C111.077 23.8293 111.669 24.0917 112.394 24.0917ZM118.441 24.3764C118.34 24.2424 118.29 24.075 118.29 23.874C118.29 23.5837 118.435 23.3381 118.726 23.1371C118.882 23.0366 119.044 22.9864 119.211 22.9864C119.446 22.9864 119.669 23.0924 119.881 23.3046C120.216 23.6507 120.562 23.9075 120.92 24.075C121.288 24.2424 121.729 24.3262 122.243 24.3262C123.113 24.2927 123.549 23.9633 123.549 23.3381C123.549 23.0143 123.398 22.7686 123.097 22.6012C122.806 22.4337 122.349 22.2662 121.723 22.0987C121.076 21.9201 120.546 21.7415 120.132 21.5628C119.73 21.3842 119.379 21.1162 119.077 20.7589C118.787 20.3905 118.642 19.8992 118.642 19.2852C118.642 18.7492 118.793 18.2859 119.094 17.8951C119.407 17.4932 119.809 17.1861 120.3 16.974C120.802 16.7507 121.333 16.6391 121.891 16.6391C122.46 16.6391 123.03 16.7451 123.599 16.9573C124.169 17.1694 124.615 17.482 124.939 17.8951C125.084 18.0738 125.157 18.2747 125.157 18.498C125.157 18.7548 125.051 18.967 124.838 19.1344C124.682 19.2573 124.504 19.3187 124.303 19.3187C124.057 19.3187 123.856 19.2405 123.7 19.0842C123.499 18.8386 123.236 18.6432 122.913 18.498C122.6 18.3529 122.243 18.2803 121.841 18.2803C120.992 18.2803 120.568 18.5874 120.568 19.2014C120.568 19.4471 120.646 19.648 120.802 19.8043C120.959 19.9495 121.154 20.0667 121.388 20.156C121.634 20.2342 121.975 20.3347 122.41 20.4575C123.013 20.625 123.515 20.798 123.917 20.9767C124.319 21.1553 124.66 21.4288 124.939 21.7973C125.218 22.1657 125.358 22.6514 125.358 23.2543C125.358 23.8014 125.196 24.2815 124.872 24.6946C124.548 25.0965 124.129 25.4036 123.616 25.6157C123.113 25.8279 122.594 25.9339 122.058 25.9339C121.322 25.9339 120.635 25.8111 119.998 25.5655C119.362 25.3198 118.843 24.9235 118.441 24.3764ZM131.746 16.6391C132.851 16.6391 133.616 16.9796 134.04 17.6607C134.464 18.3306 134.676 19.2628 134.676 20.4575V24.7449C134.676 25.0351 134.581 25.2808 134.392 25.4817C134.202 25.6715 133.962 25.7664 133.671 25.7664C133.381 25.7664 133.141 25.6715 132.951 25.4817C132.762 25.2808 132.667 25.0351 132.667 24.7449V20.4575C132.667 19.8434 132.544 19.3633 132.298 19.0172C132.064 18.6599 131.645 18.4813 131.042 18.4813C130.417 18.4813 129.926 18.6711 129.568 19.0507C129.222 19.4191 129.049 19.8881 129.049 20.4575V24.7449C129.049 25.0351 128.954 25.2808 128.764 25.4817C128.575 25.6715 128.335 25.7664 128.044 25.7664C127.754 25.7664 127.514 25.6715 127.324 25.4817C127.134 25.2808 127.039 25.0351 127.039 24.7449V14.3949C127.039 14.1046 127.134 13.8646 127.324 13.6748C127.514 13.4738 127.754 13.3733 128.044 13.3733C128.335 13.3733 128.575 13.4738 128.764 13.6748C128.954 13.8646 129.049 14.1046 129.049 14.3949V18.0961C129.351 17.6942 129.73 17.3536 130.188 17.0745C130.657 16.7842 131.176 16.6391 131.746 16.6391Z" fill="#0F4264"/>
<path d="M18.4407 24.6973C18.4407 29.604 14.463 33.5817 9.55628 33.5817C4.64956 33.5817 0.671875 29.604 0.671875 24.6973C0.671875 22.1103 1.77758 19.7816 3.54218 18.1579C5.12448 16.7019 7.23655 15.8129 9.55628 15.8129C14.463 15.8129 18.4407 19.7906 18.4407 24.6973Z" fill="#197BBD"/>
<path d="M44.0817 24.6973C44.0817 29.604 40.104 33.5817 35.1973 33.5817C30.2906 33.5817 26.3129 29.604 26.3129 24.6973C26.3129 24.0705 26.3778 23.4589 26.5012 22.8688C27.3442 18.8393 30.9173 15.8129 35.1973 15.8129C40.104 15.8129 44.0817 19.7906 44.0817 24.6973Z" fill="#197BBD"/>
<path d="M34.1042 14.0761C34.1042 18.5477 30.8008 22.2477 26.5012 22.8688C26.0828 22.9293 25.655 22.9605 25.2198 22.9605C20.9075 22.9605 17.3127 19.8881 16.5051 15.8129C16.3938 15.2512 16.3354 14.6705 16.3354 14.0761C16.3354 13.2956 16.4361 12.5385 16.6252 11.8172C17.6245 8.0045 21.0937 5.19174 25.2198 5.19174C30.1266 5.19174 34.1042 9.16942 34.1042 14.0761Z" fill="#197BBD"/>
<path d="M18.4407 24.6973C18.4407 29.604 14.463 33.5817 9.55628 33.5817H35.1973C30.2906 33.5817 26.3129 29.604 26.3129 24.6973C26.3129 24.0705 26.3778 23.4589 26.5012 22.8688C26.0828 22.9293 25.655 22.9605 25.2198 22.9605C20.9075 22.9605 17.3127 19.8881 16.5051 15.8129H10.7098H9.55628C14.463 15.8129 18.4407 19.7906 18.4407 24.6973Z" fill="#197BBD" stroke='#197BBD'/>
<path d="M16.5051 15.8129C16.3938 15.2512 16.3354 14.6705 16.3354 14.0761C16.3354 13.2956 16.4361 12.5385 16.6252 11.8172C15.8828 13.1491 13.6603 15.8129 10.7098 15.8129H16.5051Z" fill="#197BBD" stroke='#197BBD'/>
<circle cx="35.3391" cy="11.3716" r="8.01481" transform="rotate(-30 35.3391 11.3716)" fill="#FFC145"/>
<path d="M38.5746 11.5614C38.8606 12.0569 38.9348 12.5717 38.7971 13.1058C38.6594 13.64 38.3634 14.1155 37.9091 14.5322L38.2546 15.1305C38.3512 15.2978 38.3731 15.4696 38.3205 15.6458C38.278 15.8248 38.1731 15.9626 38.0058 16.0592C37.8449 16.152 37.6764 16.1721 37.5001 16.1195C37.3276 16.0732 37.193 15.9665 37.0965 15.7992L36.7844 15.2587C36.4184 15.4272 36.0572 15.537 35.7008 15.5884C35.3508 15.636 34.9739 15.622 34.5699 15.5464C34.307 15.4923 34.1217 15.372 34.014 15.1854C33.9285 15.0374 33.9089 14.8771 33.9552 14.7046C33.9977 14.5256 34.0962 14.3916 34.2506 14.3024C34.3728 14.2318 34.5045 14.2073 34.6456 14.2288C34.9379 14.2745 35.202 14.2936 35.4379 14.2861C35.67 14.2721 35.9016 14.22 36.1325 14.1295L35.0459 12.2476C33.6152 12.7562 32.5952 12.4829 31.986 11.4277C31.6777 10.8936 31.6053 10.3521 31.7687 9.80306C31.9284 9.24759 32.2723 8.76595 32.8004 8.35812L32.6165 8.03964C32.5199 7.87235 32.4947 7.70244 32.5409 7.52991C32.5899 7.34723 32.698 7.2076 32.8653 7.11101C33.0261 7.01814 33.1947 6.99804 33.3709 7.0507C33.5435 7.09693 33.678 7.20369 33.7746 7.37098L33.9808 7.72807C34.5834 7.50883 35.149 7.44826 35.6774 7.54635C35.9495 7.58661 36.1412 7.70325 36.2526 7.89627C36.3381 8.04426 36.3595 8.20773 36.317 8.3867C36.2708 8.55923 36.1737 8.68822 36.0257 8.77365C35.9292 8.82938 35.8256 8.85057 35.715 8.83724C35.4291 8.78783 35.0758 8.80737 34.655 8.89587L35.6859 10.6813C36.3954 10.469 36.9753 10.4259 37.4256 10.552C37.8721 10.6716 38.2551 11.0081 38.5746 11.5614ZM33.097 10.7219C33.2196 10.9342 33.3875 11.0689 33.6006 11.126C33.81 11.1767 34.0689 11.1645 34.3773 11.0894L33.4523 9.48731C33.2182 9.69109 33.0726 9.89954 33.0155 10.1127C32.9584 10.3258 32.9856 10.5289 33.097 10.7219ZM37.2405 13.374C37.3825 13.1891 37.4761 13.0021 37.5213 12.8129C37.5629 12.6174 37.5409 12.4456 37.4555 12.2976C37.3515 12.1175 37.2108 11.9928 37.0336 11.9235C36.8526 11.8479 36.63 11.8263 36.3657 11.8588L37.2405 13.374Z" fill="#404040"/>
</svg>
