<svg width="25" height="25" viewBox="0 0 25 25" fill="none" xmlns="http://www.w3.org/2000/svg">
<path d="M18.4822 8.78964C18.4822 7.19834 17.85 5.67222 16.7248 4.547C15.5996 3.42178 14.0735 2.78964 12.4822 2.78964C10.8909 2.78964 9.36476 3.42178 8.23954 4.547C7.11432 5.67222 6.48218 7.19834 6.48218 8.78964C6.48218 15.7896 3.48218 17.7896 3.48218 17.7896H21.4822C21.4822 17.7896 18.4822 15.7896 18.4822 8.78964Z" fill="#E3E3E3"/>
<path d="M14.2122 21.7896C14.0364 22.0927 13.784 22.3443 13.4804 22.5192C13.1768 22.6941 12.8326 22.7861 12.4822 22.7861C12.1318 22.7861 11.7876 22.6941 11.484 22.5192C11.1804 22.3443 10.928 22.0927 10.7522 21.7896" stroke="#E3E3E3" stroke-width="2" stroke-linecap="round" stroke-linejoin="round"/>
<circle cx="18.1837" cy="5.48798" r="3.97196" fill="#BB4430"/>
</svg>
