<svg width="36" height="36" viewBox="0 0 36 36" fill="none" xmlns="http://www.w3.org/2000/svg">
<mask id="mask0_1_300" style="mask-type:alpha" maskUnits="userSpaceOnUse" x="0" y="0" width="36" height="36">
<circle cx="17.8396" cy="17.7896" r="17.5292" fill="#FFC145"/>
</mask>
<g mask="url(#mask0_1_300)">
<path d="M28.6723 37.4072V33.8263C28.6723 31.9269 28.1016 30.1053 27.0859 28.7623C26.0701 27.4192 24.6924 26.6646 23.2559 26.6646H12.4231C10.9865 26.6646 9.60885 27.4192 8.59308 28.7623C7.57731 30.1053 7.00665 31.9269 7.00665 33.8263V37.4072" fill="#197BBD"/>
<path d="M17.8381 21.2475C20.8295 21.2475 23.2545 18.8224 23.2545 15.831C23.2545 12.8397 20.8295 10.4146 17.8381 10.4146C14.8467 10.4146 12.4217 12.8397 12.4217 15.831C12.4217 18.8224 14.8467 21.2475 17.8381 21.2475Z" fill="white"/>
</g>
</svg>
