<svg width="150" height="140" viewBox="0 0 104 110" fill="none" xmlns="http://www.w3.org/2000/svg">
<path d="M55.0242 9.59723C61.1385 9.59725 66.0955 14.5542 66.0955 20.6685C66.0954 21.4505 66.0138 22.2129 65.8601 22.9478L65.6414 23.9966L66.7019 23.8433C67.2232 23.768 67.7566 23.7291 68.2996 23.7291C74.4139 23.7291 79.3708 28.686 79.3708 34.8004C79.3707 40.9146 74.4139 45.8716 68.2996 45.8716H34.1833C28.069 45.8716 23.1122 40.9146 23.1121 34.8004C23.1121 31.5766 24.4892 28.6753 26.6892 26.6509C28.6615 24.8362 31.2924 23.7291 34.1833 23.7291H35.7175C37.9118 23.7291 39.7961 22.7396 41.2302 21.566C42.6638 20.3928 43.7087 18.988 44.2439 18.0279L44.2898 17.9449L44.3142 17.8531C45.5596 13.1018 49.8835 9.59723 55.0242 9.59723Z" stroke="#197BBD" stroke-width="1.5"/>
<path d="M60.1161 61.6762V52.1857" stroke="#197BBD" stroke-width="1.5" stroke-linecap="round" stroke-linejoin="round"/>
<path d="M55.3719 56.931L60.1172 52.1857L64.8624 56.931" stroke="#197BBD" stroke-width="1.5" stroke-linecap="round" stroke-linejoin="round"/>
<path d="M43.1699 44.0518L47.9152 39.3066L52.6604 44.0518" stroke="#197BBD" stroke-width="0.683017" stroke-linecap="round" stroke-linejoin="round"/>
<g clip-path="url(#clip0_1_151)">
<path d="M45.0235 59.7232L36.3954 68.3513C35.8659 68.8808 35.8659 69.7392 36.3954 70.2687L42.1475 76.0208C42.6769 76.5503 43.5354 76.5503 44.0648 76.0208L52.693 67.3927C53.2224 66.8632 53.2224 66.0048 52.693 65.4753L46.9409 59.7232C46.4114 59.1938 45.553 59.1938 45.0235 59.7232Z" stroke="#197BBD" stroke-width="1.5" stroke-linecap="round" stroke-linejoin="round"/>
<path d="M38.313 72.1857L48.8585 61.6402" stroke="#197BBD" stroke-width="1.5" stroke-linecap="round" stroke-linejoin="round"/>
</g>
<circle cx="37.2368" cy="17.1965" r="11.7215" transform="rotate(-30 37.2368 17.1965)" stroke="#197BBD" stroke-width="1.5"/>
<path d="M40.9372 16.7C41.1553 17.0779 41.2542 17.4862 41.2338 17.9251C41.2216 18.3592 41.09 18.7857 40.8389 19.2044C40.5961 19.6184 40.2507 19.9875 39.8028 20.3119L40.6065 21.7041C40.6682 21.8108 40.681 21.9184 40.645 22.0268C40.622 22.1387 40.5571 22.2254 40.4503 22.2871C40.3436 22.3487 40.2319 22.3639 40.1153 22.3327C40.0116 22.3049 39.929 22.2376 39.8673 22.1308L39.0707 20.751C38.5342 21.0169 38.0038 21.1698 37.4793 21.2098C36.9548 21.2498 36.3905 21.1923 35.7863 21.0373C35.6403 21.0121 35.5341 20.942 35.4678 20.827C35.4108 20.7285 35.3956 20.6168 35.4221 20.4919C35.4569 20.3624 35.5235 20.2692 35.6221 20.2123C35.7206 20.1554 35.8347 20.1443 35.9642 20.179C36.8996 20.4713 37.7952 20.4196 38.651 20.0241L36.6593 16.5744C35.7497 16.782 34.9876 16.8277 34.373 16.7116C33.7585 16.5955 33.2544 16.1966 32.8608 15.5149C32.5146 14.9153 32.443 14.2886 32.6459 13.6349C32.8442 12.9729 33.2857 12.4003 33.9705 11.9173L33.4228 10.9687C33.3612 10.8619 33.3443 10.7567 33.372 10.653C33.4033 10.5364 33.4723 10.4473 33.5791 10.3857C33.6858 10.324 33.7934 10.3112 33.9018 10.3472C34.0137 10.3702 34.1004 10.4351 34.1621 10.5419L34.7027 11.4782C35.1617 11.268 35.6275 11.1359 36.1002 11.082C36.5729 11.0282 37.0024 11.0704 37.3889 11.2086C37.5927 11.2771 37.7231 11.3607 37.78 11.4592C37.8321 11.5496 37.8409 11.6595 37.8061 11.7891C37.7667 11.9104 37.6977 11.9996 37.5991 12.0565C37.517 12.1039 37.4306 12.1154 37.3399 12.0911C37.0182 11.9702 36.6603 11.9195 36.2663 11.9389C35.8723 11.9583 35.4934 12.0511 35.1294 12.2174L37.0642 15.5686C37.6635 15.4306 38.1861 15.3589 38.6319 15.3534C39.0812 15.3349 39.5034 15.4306 39.8984 15.6406C40.2969 15.8377 40.6432 16.1908 40.9372 16.7ZM33.6104 15.0493C33.8475 15.4599 34.1768 15.7079 34.5983 15.793C35.0281 15.8735 35.5562 15.8588 36.1827 15.7489L34.3902 12.6442C33.9306 12.9862 33.6288 13.374 33.4849 13.8076C33.3362 14.2329 33.378 14.6468 33.6104 15.0493ZM39.3831 19.585C39.8297 19.2395 40.1292 18.8476 40.2813 18.4093C40.4287 17.9628 40.3886 17.5424 40.161 17.1482C39.9062 16.7258 39.5657 16.4679 39.1394 16.3745C38.7084 16.2729 38.1731 16.2753 37.5337 16.3817L39.3831 19.585Z" fill="#197BBD"/>
<path d="M22.3621 34.7989C22.3621 41.3275 27.6545 46.62 34.1831 46.62H68.2995C74.8281 46.62 80.1206 41.3275 80.1206 34.7989C80.1206 28.2703 74.8281 22.9779 68.2995 22.9779C67.7205 22.9779 67.1513 23.0195 66.5946 23.0999C66.7588 22.3148 66.8452 21.501 66.8452 20.667C66.8452 14.1384 61.5527 8.84598 55.0241 8.84598C49.5341 8.84598 44.9183 12.5885 43.5886 17.6614C42.6008 19.4335 39.6437 22.9779 35.7179 22.9779H34.1831C31.0966 22.9779 28.2864 24.1608 26.1811 26.0979C23.8332 28.2583 22.3621 31.3568 22.3621 34.7989Z" fill="white"/>
<path d="M55.0242 9.59598C61.1385 9.596 66.0955 14.5529 66.0955 20.6673C66.0954 21.4492 66.0138 22.2117 65.8601 22.9466L65.6414 23.9954L66.7019 23.8421C67.2232 23.7668 67.7566 23.7278 68.2996 23.7278C74.4139 23.7278 79.3708 28.6847 79.3708 34.7991C79.3707 40.9134 74.4139 45.8704 68.2996 45.8704H34.1833C28.069 45.8704 23.1122 40.9134 23.1121 34.7991C23.1121 31.5754 24.4892 28.674 26.6892 26.6497C28.6615 24.835 31.2924 23.7278 34.1833 23.7278H35.7175C37.9118 23.7278 39.7961 22.7383 41.2302 21.5647C42.6638 20.3915 43.7087 18.9867 44.2439 18.0266L44.2898 17.9436L44.3142 17.8518C45.5596 13.1006 49.8835 9.59598 55.0242 9.59598Z" stroke="#197BBD" stroke-width="1.5"/>
<path d="M88.4279 13.8128C88.2768 15.4482 87.663 17.0067 86.6585 18.306C85.6539 19.6053 84.3001 20.5916 82.7554 21.1495C81.2108 21.7075 79.5391 21.8139 77.9362 21.4565C76.3332 21.0991 74.8652 20.2925 73.7039 19.1312C72.5426 17.9699 71.736 16.5019 71.3786 14.8989C71.0212 13.2959 71.1276 11.6243 71.6856 10.0797C72.2435 8.53501 73.2298 7.18119 74.5291 6.17664C75.8284 5.17208 77.3869 4.55833 79.0223 4.4072C78.0648 5.70253 77.6041 7.29848 77.7239 8.9048C77.8437 10.5111 78.536 12.0211 79.675 13.1601C80.814 14.2991 82.324 14.9914 83.9303 15.1112C85.5366 15.231 87.1326 14.7703 88.4279 13.8128V13.8128Z" stroke="#197BBD" stroke-width="1.5" stroke-linecap="round" stroke-linejoin="round"/>
<rect x="39.7805" y="37.9598" width="16.2694" height="13.4883" fill="white"/>
<path d="M47.9152 48.7958V39.3053" stroke="#197BBD" stroke-width="1.5" stroke-linecap="round" stroke-linejoin="round"/>
<path d="M47.9152 47.4503V37.9598" stroke="#197BBD" stroke-width="1.5" stroke-linecap="round" stroke-linejoin="round"/>
<path d="M43.1697 42.705L47.915 37.9598L52.6602 42.705" stroke="#197BBD" stroke-width="1.5" stroke-linecap="round" stroke-linejoin="round"/>
<path d="M17.3763 92.7273C17.3763 91.33 18.4189 90.1934 19.8162 90.1934C20.9998 90.1934 21.5852 90.9113 21.5852 90.9113H22.3843C22.3843 90.9113 21.6664 89.5781 19.8162 89.5781C18.0771 89.5781 16.667 90.9882 16.667 92.7273C16.667 94.4664 18.0771 95.8765 19.8162 95.8765C21.4271 95.8765 22.9227 94.6373 22.7218 92.3513H19.9444V92.9666H22.0382C22.0382 94.2613 21.1323 95.2612 19.8162 95.2612C18.4189 95.2612 17.3763 94.1246 17.3763 92.7273ZM24.008 95.791H24.6661V91.4924H24.008V95.791ZM23.8969 90.2789C23.8969 90.5224 24.0977 90.7147 24.337 90.7147C24.5763 90.7147 24.7772 90.5224 24.7772 90.2789C24.7772 90.0396 24.5763 89.843 24.337 89.843C24.0977 89.843 23.8969 90.0396 23.8969 90.2789ZM27.7982 94.9963L26.3197 91.4924H25.589L27.4606 95.791H28.1357L30.0073 91.4924H29.2766L27.7982 94.9963ZM32.6694 95.8765C34.2162 95.8765 34.7204 94.7143 34.7204 94.7143H33.9812C33.9812 94.7143 33.5753 95.3125 32.6694 95.3125C31.8874 95.3125 31.2422 94.7484 31.114 93.9366H34.9212C35.0024 92.347 33.9043 91.4069 32.6694 91.4069C31.4345 91.4069 30.4346 92.3214 30.4346 93.6417C30.4346 94.9621 31.4345 95.8765 32.6694 95.8765ZM32.6694 91.971C33.4556 91.971 34.1094 92.5478 34.2248 93.3725H31.1097C31.2294 92.5478 31.8789 91.971 32.6694 91.971ZM38.9293 98.0643H39.6045L42.4674 91.4924H41.7367L40.2582 94.9963L38.7798 91.4924H38.0491L39.9207 95.791L38.9293 98.0643ZM43.1083 93.6417C43.1083 94.9621 44.1082 95.8765 45.3431 95.8765C46.578 95.8765 47.5779 94.9621 47.5779 93.6417C47.5779 92.3214 46.578 91.4069 45.3431 91.4069C44.1082 91.4069 43.1083 92.3214 43.1083 93.6417ZM43.7664 93.6417C43.7664 92.676 44.4714 91.971 45.3431 91.971C46.2148 91.971 46.9198 92.676 46.9198 93.6417C46.9198 94.6074 46.2148 95.3125 45.3431 95.3125C44.4714 95.3125 43.7664 94.6074 43.7664 93.6417ZM48.6034 93.6417C48.6034 95.0048 49.2187 95.8765 50.4878 95.8765C51.6116 95.8765 51.8637 95.0176 51.8851 94.9706V95.791H52.5431V91.4924H51.8851V93.6417C51.8851 94.5604 51.5347 95.3125 50.5732 95.3125C49.6118 95.3125 49.2614 94.5604 49.2614 93.6417V91.4924H48.6034V93.6417ZM56.2734 91.4924C56.2734 91.4924 55.9615 91.4069 55.6795 91.4069C55.03 91.4027 54.56 91.7744 54.3976 92.3128V91.4924H53.7395V95.791H54.3976V93.6417C54.3976 92.7017 54.7522 91.9753 55.6752 91.971C55.97 91.971 56.2734 92.0436 56.2734 92.0436V91.4924ZM66.5585 93.5563C66.5585 92.3214 66.0458 91.4069 64.7767 91.4069C63.6529 91.4069 63.2897 92.3812 63.2897 92.3812C63.2897 92.3812 62.9735 91.4069 61.7172 91.4069C60.7387 91.4069 60.461 92.1804 60.4396 92.2274V91.4924H59.7816V95.791H60.4396V93.6417C60.4396 92.723 60.7216 91.9795 61.6403 91.9795C62.559 91.9795 62.841 92.723 62.841 93.6417V95.791H63.4991V93.6417C63.4991 92.723 63.7811 91.9795 64.6998 91.9795C65.6185 91.9795 65.9005 92.723 65.9005 93.6417V95.791H66.5585V93.5563ZM67.5841 93.6417C67.5841 94.9621 68.5839 95.8765 69.8188 95.8765C71.0537 95.8765 72.0536 94.9621 72.0536 93.6417C72.0536 92.3214 71.0537 91.4069 69.8188 91.4069C68.5839 91.4069 67.5841 92.3214 67.5841 93.6417ZM68.2421 93.6417C68.2421 92.676 68.9471 91.971 69.8188 91.971C70.6905 91.971 71.3956 92.676 71.3956 93.6417C71.3956 94.6074 70.6905 95.3125 69.8188 95.3125C68.9471 95.3125 68.2421 94.6074 68.2421 93.6417ZM77.0188 93.6417C77.0188 92.2786 76.4035 91.4069 75.1344 91.4069C74.0106 91.4069 73.7585 92.2658 73.7372 92.3128V91.4924H73.0791V95.791H73.7372V93.6417C73.7372 92.723 74.0876 91.971 75.049 91.971C76.0104 91.971 76.3608 92.723 76.3608 93.6417V95.791H77.0188V93.6417ZM80.2791 95.8765C81.826 95.8765 82.3302 94.7143 82.3302 94.7143H81.5909C81.5909 94.7143 81.185 95.3125 80.2791 95.3125C79.4972 95.3125 78.8519 94.7484 78.7238 93.9366H82.531C82.6122 92.347 81.514 91.4069 80.2791 91.4069C79.0442 91.4069 78.0444 92.3214 78.0444 93.6417C78.0444 94.9621 79.0442 95.8765 80.2791 95.8765ZM80.2791 91.971C81.0654 91.971 81.7191 92.5478 81.8345 93.3725H78.7195C78.8391 92.5478 79.4886 91.971 80.2791 91.971ZM84.0607 98.0643H84.7359L87.5988 91.4924H86.8681L85.3896 94.9963L83.9112 91.4924H83.1805L85.0521 95.791L84.0607 98.0643ZM4.57869 103.394C4.57869 103.394 4.12147 102.407 2.95922 102.407C1.76705 102.407 0.76717 103.364 0.76717 104.642C0.76717 105.919 1.76705 106.877 2.95922 106.877C4.12147 106.877 4.57869 105.889 4.57869 105.889V106.791H5.23673V102.492H4.57869V103.394ZM4.57869 104.642C4.57869 105.607 3.87364 106.312 3.00195 106.312C2.13026 106.312 1.42521 105.607 1.42521 104.642C1.42521 103.676 2.13026 102.971 3.00195 102.971C3.87364 102.971 4.57869 103.676 4.57869 104.642ZM7.78771 105.774L6.77073 102.492H6.0486L7.47578 106.791H8.09109L9.12088 103.497L10.1507 106.791H10.766L12.1932 102.492H11.471L10.4541 105.774L9.42854 102.492H8.81323L7.78771 105.774ZM14.8552 106.877C16.4021 106.877 16.9063 105.714 16.9063 105.714H16.1671C16.1671 105.714 15.7611 106.312 14.8552 106.312C14.0733 106.312 13.4281 105.748 13.2999 104.937H17.1071C17.1883 103.347 16.0901 102.407 14.8552 102.407C13.6204 102.407 12.6205 103.321 12.6205 104.642C12.6205 105.962 13.6204 106.877 14.8552 106.877ZM14.8552 102.971C15.6415 102.971 16.2952 103.548 16.4106 104.373H13.2956C13.4152 103.548 14.0647 102.971 14.8552 102.971ZM19.688 106.312C18.7608 106.312 18.5685 105.8 18.5685 105.8H17.8848C17.8848 105.8 18.0044 106.877 19.688 106.877C20.8075 106.877 21.5169 106.441 21.5169 105.625C21.5169 104.749 20.8033 104.407 19.688 104.283C18.936 104.197 18.6411 103.979 18.6411 103.612C18.6411 103.253 18.9317 102.971 19.688 102.971C20.5512 102.971 20.7135 103.484 20.7135 103.484H21.3972C21.3972 103.484 21.222 102.407 19.688 102.407C18.5044 102.407 17.966 102.971 17.966 103.612C17.966 104.381 18.5813 104.74 19.688 104.877C20.6152 104.992 20.8417 105.184 20.8417 105.625C20.8417 106.065 20.4016 106.312 19.688 106.312ZM22.286 104.642C22.286 105.962 23.2859 106.877 24.5208 106.877C25.7557 106.877 26.7555 105.962 26.7555 104.642C26.7555 103.321 25.7557 102.407 24.5208 102.407C23.2859 102.407 22.286 103.321 22.286 104.642ZM22.944 104.642C22.944 103.676 23.6491 102.971 24.5208 102.971C25.3925 102.971 26.0975 103.676 26.0975 104.642C26.0975 105.607 25.3925 106.312 24.5208 106.312C23.6491 106.312 22.944 105.607 22.944 104.642ZM34.558 104.556C34.558 103.321 34.0453 102.407 32.7762 102.407C31.6524 102.407 31.2892 103.381 31.2892 103.381C31.2892 103.381 30.973 102.407 29.7167 102.407C28.7382 102.407 28.4605 103.18 28.4391 103.227V102.492H27.7811V106.791H28.4391V104.642C28.4391 103.723 28.7211 102.98 29.6398 102.98C30.5585 102.98 30.8405 103.723 30.8405 104.642V106.791H31.4986V104.642C31.4986 103.723 31.7806 102.98 32.6993 102.98C33.618 102.98 33.9 103.723 33.9 104.642V106.791H34.558V104.556ZM37.8183 106.877C39.3652 106.877 39.8694 105.714 39.8694 105.714H39.1302C39.1302 105.714 38.7242 106.312 37.8183 106.312C37.0364 106.312 36.3912 105.748 36.263 104.937H40.0702C40.1514 103.347 39.0532 102.407 37.8183 102.407C36.5834 102.407 35.5836 103.321 35.5836 104.642C35.5836 105.962 36.5834 106.877 37.8183 106.877ZM37.8183 102.971C38.6046 102.971 39.2583 103.548 39.3737 104.373H36.2587C36.3783 103.548 37.0278 102.971 37.8183 102.971ZM45.1294 106.312C44.2022 106.312 44.0099 105.8 44.0099 105.8H43.3262C43.3262 105.8 43.4459 106.877 45.1294 106.877C46.249 106.877 46.9583 106.441 46.9583 105.625C46.9583 104.749 46.2447 104.407 45.1294 104.283C44.3774 104.197 44.0826 103.979 44.0826 103.612C44.0826 103.253 44.3731 102.971 45.1294 102.971C45.9926 102.971 46.155 103.484 46.155 103.484H46.8386C46.8386 103.484 46.6634 102.407 45.1294 102.407C43.9458 102.407 43.4074 102.971 43.4074 103.612C43.4074 104.381 44.0227 104.74 45.1294 104.877C46.0567 104.992 46.2832 105.184 46.2832 105.625C46.2832 106.065 45.843 106.312 45.1294 106.312ZM48.5564 102.492H47.8983V109.064H48.5564V105.894C48.5778 105.941 49.0435 106.877 50.1759 106.877C51.368 106.877 52.3679 105.919 52.3679 104.642C52.3679 103.364 51.368 102.407 50.1759 102.407C49.0435 102.407 48.5778 103.347 48.5564 103.394V102.492ZM48.5564 104.642C48.5564 103.676 49.2614 102.971 50.1331 102.971C51.0048 102.971 51.7099 103.676 51.7099 104.642C51.7099 105.607 51.0048 106.312 50.1331 106.312C49.2614 106.312 48.5564 105.607 48.5564 104.642ZM57.034 103.394C57.034 103.394 56.5768 102.407 55.4146 102.407C54.2224 102.407 53.2225 103.364 53.2225 104.642C53.2225 105.919 54.2224 106.877 55.4146 106.877C56.5768 106.877 57.034 105.889 57.034 105.889V106.791H57.6921V102.492H57.034V103.394ZM57.034 104.642C57.034 105.607 56.329 106.312 55.4573 106.312C54.5856 106.312 53.8805 105.607 53.8805 104.642C53.8805 103.676 54.5856 102.971 55.4573 102.971C56.329 102.971 57.034 103.676 57.034 104.642ZM62.9179 103.569C62.9179 103.569 62.4607 102.407 60.9524 102.407C59.7175 102.407 58.7176 103.364 58.7176 104.642C58.7176 105.919 59.7175 106.877 60.9524 106.877C62.4607 106.877 62.9179 105.714 62.9179 105.714H62.1787C62.1787 105.714 61.8198 106.312 60.9524 106.312C60.0807 106.312 59.3756 105.607 59.3756 104.642C59.3756 103.676 60.0807 102.971 60.9524 102.971C61.8198 102.971 62.1787 103.569 62.1787 103.569H62.9179ZM65.815 106.877C67.3619 106.877 67.8661 105.714 67.8661 105.714H67.1268C67.1268 105.714 66.7209 106.312 65.815 106.312C65.0331 106.312 64.3879 105.748 64.2597 104.937H68.0669C68.1481 103.347 67.0499 102.407 65.815 102.407C64.5801 102.407 63.5803 103.321 63.5803 104.642C63.5803 105.962 64.5801 106.877 65.815 106.877ZM65.815 102.971C66.6013 102.971 67.255 103.548 67.3704 104.373H64.2554C64.375 103.548 65.0245 102.971 65.815 102.971ZM71.6904 106.791H72.3484V102.492H71.6904V106.791ZM71.5793 101.279C71.5793 101.522 71.7801 101.715 72.0194 101.715C72.2587 101.715 72.4595 101.522 72.4595 101.279C72.4595 101.04 72.2587 100.843 72.0194 100.843C71.7801 100.843 71.5793 101.04 71.5793 101.279ZM77.5957 104.642C77.5957 103.279 76.9804 102.407 75.7113 102.407C74.5875 102.407 74.3354 103.266 74.314 103.313V102.492H73.656V106.791H74.314V104.642C74.314 103.723 74.6644 102.971 75.6258 102.971C76.5873 102.971 76.9377 103.723 76.9377 104.642V106.791H77.5957V104.642ZM85.2999 103.569C85.2999 103.569 84.8427 102.407 83.3343 102.407C82.0994 102.407 81.0995 103.364 81.0995 104.642C81.0995 105.919 82.0994 106.877 83.3343 106.877C84.8427 106.877 85.2999 105.714 85.2999 105.714H84.5607C84.5607 105.714 84.2017 106.312 83.3343 106.312C82.4626 106.312 81.7576 105.607 81.7576 104.642C81.7576 103.676 82.4626 102.971 83.3343 102.971C84.2017 102.971 84.5607 103.569 84.5607 103.569H85.2999ZM86.9877 106.791V100.313H86.3297V106.791H86.9877ZM88.0987 104.642C88.0987 105.962 89.0986 106.877 90.3335 106.877C91.5684 106.877 92.5683 105.962 92.5683 104.642C92.5683 103.321 91.5684 102.407 90.3335 102.407C89.0986 102.407 88.0987 103.321 88.0987 104.642ZM88.7568 104.642C88.7568 103.676 89.4618 102.971 90.3335 102.971C91.2052 102.971 91.9102 103.676 91.9102 104.642C91.9102 105.607 91.2052 106.312 90.3335 106.312C89.4618 106.312 88.7568 105.607 88.7568 104.642ZM93.5938 104.642C93.5938 106.005 94.2091 106.877 95.4782 106.877C96.602 106.877 96.8541 106.018 96.8755 105.971V106.791H97.5335V102.492H96.8755V104.642C96.8755 105.56 96.5251 106.312 95.5636 106.312C94.6022 106.312 94.2518 105.56 94.2518 104.642V102.492H93.5938V104.642ZM102.371 103.394C102.349 103.347 101.883 102.407 100.751 102.407C99.5589 102.407 98.559 103.364 98.559 104.642C98.559 105.919 99.5589 106.877 100.751 106.877C101.883 106.877 102.349 105.941 102.371 105.894V106.791H103.029V100.313H102.371V103.394ZM102.371 104.642C102.371 105.607 101.665 106.312 100.794 106.312C99.9221 106.312 99.2171 105.607 99.2171 104.642C99.2171 103.676 99.9221 102.971 100.794 102.971C101.665 102.971 102.371 103.676 102.371 104.642Z" fill="#404040"/>
<defs>
<clipPath id="clip0_1_151">
<rect width="16.2694" height="16.2694" fill="white" transform="translate(33.0407 67.8718) rotate(-45)"/>
</clipPath>
</defs>
</svg>
