<svg width="36" height="36" viewBox="0 0 36 36" fill="none" xmlns="http://www.w3.org/2000/svg">
<path d="M17.9922 5.21517C17.2922 5.21517 17.0589 5.68184 16.5922 6.14851L3.05886 28.3152C2.82553 28.5485 2.82553 29.0152 2.82553 29.2485C2.82553 30.4152 3.75886 30.8818 4.45886 30.8818H31.5255C32.4589 30.8818 33.1589 30.4152 33.1589 29.2485C33.1589 28.7818 33.1589 28.7818 32.9255 28.3152L19.6255 6.14851C19.1589 5.68184 18.6922 5.21517 17.9922 5.21517ZM17.9922 8.71517L25.6922 21.5485H23.8255L20.3255 18.0485L17.9922 21.5485L15.6589 18.0485L12.1589 21.5485H10.0589L17.9922 8.71517Z" fill="url(#paint0_linear_1_229)"/>
<defs>
<linearGradient id="paint0_linear_1_229" x1="17.9922" y1="5.21517" x2="17.9922" y2="30.8818" gradientUnits="userSpaceOnUse">
<stop stop-color="#c7c7c7"/>
<stop offset="1" stop-color="#c7c7c7"/>
</linearGradient>
</defs>
</svg>
