<svg width="212" height="142" viewBox="0 0 212 142" fill="none" xmlns="http://www.w3.org/2000/svg">
<path d="M104.866 115.569C104.866 144.425 81.4728 167.818 52.6165 167.818C23.7601 167.818 0.367355 144.425 0.367355 115.569C0.367355 100.355 6.87 86.6595 17.2476 77.1106C26.5531 68.5482 38.9742 63.3198 52.6165 63.3198C81.4728 63.3198 104.866 86.7125 104.866 115.569Z" fill="white" fill-opacity="0.12"/>
<path d="M104.866 115.569C104.866 144.425 81.4728 167.818 52.6165 167.818H203.411C174.555 167.818 151.162 144.425 151.162 115.569C151.162 111.883 151.544 108.286 152.27 104.816C149.809 105.171 147.293 105.355 144.734 105.355C119.373 105.355 98.232 87.2863 93.4825 63.3198H59.4001H52.6165C81.4728 63.3198 104.866 86.7125 104.866 115.569Z" fill="white" fill-opacity="0.12"/>
<path d="M93.4825 63.3198C92.8279 60.0166 92.4847 56.6014 92.4847 53.106C92.4847 48.5153 93.0767 44.0629 94.1886 39.821C89.8224 47.654 76.7522 63.3198 59.4001 63.3198H93.4825Z" fill="white" fill-opacity="0.12"/>
<path fill-rule="evenodd" clip-rule="evenodd" d="M203.411 167.818C232.267 167.818 255.66 144.425 255.66 115.569C255.66 86.7125 232.267 63.3198 203.411 63.3198C200.852 63.3198 198.336 63.5038 195.875 63.8592C191.422 85.1475 174.011 101.675 152.27 104.816C151.544 108.286 151.162 111.883 151.162 115.569C151.162 144.425 174.555 167.818 203.411 167.818Z" fill="white" fill-opacity="0.12"/>
<path d="M195.875 63.8592C191.422 85.1475 174.011 101.675 152.27 104.816C156.723 83.5273 174.134 66.9999 195.875 63.8592Z" fill="white" fill-opacity="0.12"/>
<path d="M196.983 53.106C196.983 24.2496 173.59 0.856873 144.734 0.856873C120.468 0.856873 100.066 17.3987 94.1886 39.821C93.0767 44.0629 92.4847 48.5153 92.4847 53.106C92.4847 56.6014 92.8279 60.0166 93.4825 63.3198C98.232 87.2863 119.373 105.355 144.734 105.355C147.293 105.355 149.809 105.171 152.27 104.816C156.723 83.5273 174.134 66.9999 195.875 63.8592C196.601 60.3889 196.983 56.792 196.983 53.106Z" fill="white" fill-opacity="0.12"/>
</svg>
