<svg width="25" height="25" viewBox="0 0 25 25" fill="none" xmlns="http://www.w3.org/2000/svg">
<path d="M13.1469 11.2472L7.63789 16.7572L5.76789 15.9802L5.60089 16.1492L7.98089 17.7362L9.56889 20.1162L9.73689 19.9482L8.96089 18.0782L14.4699 12.5702L18.7979 18.8222L19.0079 18.6142L16.1209 10.9182L20.5209 6.52019C20.687 6.34289 20.7776 6.10794 20.7737 5.86501C20.7697 5.62209 20.6715 5.39022 20.4997 5.21842C20.3279 5.04663 20.096 4.94836 19.8531 4.9444C19.6101 4.94044 19.3752 5.03109 19.1979 5.19719L14.7979 9.59619L7.10389 6.71019L6.89389 6.91919L13.1469 11.2472ZM18.5369 21.7302L14.2069 15.4772L11.1669 18.5172L11.9439 20.3872L9.27789 23.0522L6.63289 19.0852L2.66489 16.4392L5.33089 13.7732L7.19989 14.5492L10.2399 11.5092L3.98689 7.18119L6.63289 4.53619L14.3279 7.4212L17.8749 3.87419C18.1343 3.60852 18.4438 3.39697 18.7856 3.25181C19.1274 3.10665 19.4945 3.03076 19.8658 3.02854C20.2371 3.02632 20.6052 3.09782 20.9487 3.23889C21.2921 3.37996 21.6042 3.58779 21.8667 3.85035C22.1293 4.1129 22.3371 4.42496 22.4782 4.76843C22.6193 5.1119 22.6908 5.47995 22.6885 5.85125C22.6863 6.22256 22.6104 6.58973 22.4653 6.93149C22.3201 7.27324 22.1086 7.58279 21.8429 7.8422L18.2959 11.3892L21.1819 19.0852L18.5359 21.7302H18.5369Z" fill="#70A6E8"/>
</svg>
